<?xml version="1.0" standalone="no"?>
<!DOCTYPE svg PUBLIC "-//W3C//DTD SVG 1.1//EN" "http://www.w3.org/Graphics/SVG/1.1/DTD/svg11.dtd" >
<svg xmlns="http://www.w3.org/2000/svg">
<metadata></metadata>
<defs>
<font id="vag_rounded_ltblack" horiz-adv-x="1138" >
<font-face units-per-em="2048" ascent="1638" descent="-410" />
<missing-glyph horiz-adv-x="569" />
<glyph horiz-adv-x="2048" />
<glyph horiz-adv-x="2048" />
<glyph unicode="&#xd;" horiz-adv-x="681" />
<glyph unicode=" "  horiz-adv-x="569" />
<glyph unicode="&#x09;" horiz-adv-x="569" />
<glyph unicode="&#xa0;" horiz-adv-x="569" />
<glyph unicode="!" horiz-adv-x="532" d="M88 145q0 72 53.5 125.5t125 53.5t124.5 -53.5t53 -125.5q0 -74 -53 -126t-124.5 -52t-125 52t-53.5 126zM106 592v719q0 76 43.5 128t117 52t116.5 -52t43 -128v-719q0 -76 -43 -128t-116.5 -52t-117 52t-43.5 128z" />
<glyph unicode="&#x22;" horiz-adv-x="985" d="M160 981v346q0 63 36.5 103t98 40t98.5 -39.5t37 -103.5v-346q0 -63 -37 -103t-98.5 -40t-98 40t-36.5 103zM555 981v346q0 63 37 103t98.5 40t98 -39.5t36.5 -103.5v-346q0 -63 -36.5 -103t-98 -40t-98.5 40t-37 103z" />
<glyph unicode="#" horiz-adv-x="1228" d="M96 510q0 39 24.5 67.5t74.5 28.5h104l33 244h-78q-49 0 -73.5 28.5t-24.5 69.5t24.5 70t73.5 29h108l44 317q14 106 114 106q39 0 65.5 -23.5t26.5 -60.5q0 -16 -8 -71l-37 -268h185l43 317q14 106 114 106q39 0 65.5 -23.5t26.5 -60.5q0 -16 -8 -71l-37 -268h78 q49 0 74 -29t25 -70t-25 -69.5t-74 -28.5h-104l-33 -244h78q49 0 73.5 -28.5t24.5 -67.5q0 -41 -24.5 -70.5t-73.5 -29.5h-109l-43 -316q-14 -106 -114 -106q-39 0 -66 23.5t-27 60.5q0 16 9 71l37 267h-185l-43 -316q-14 -106 -115 -106q-39 0 -65.5 23.5t-26.5 60.5 q1 16 9 71l36 267h-77q-49 0 -74 28.5t-25 71.5zM506 606h186l33 244h-186z" />
<glyph unicode="$" horiz-adv-x="1290" d="M121 205q0 66 43 118t104 52q27 0 131.5 -44t184.5 -44v317q-250 74 -353.5 172t-103.5 244q0 199 131 326t326 145v94q0 61 61.5 61.5t61.5 -61.5v-94q57 -2 112 -12.5t115.5 -33t97.5 -66.5t37 -105.5t-38 -107.5t-99 -46q-37 0 -108.5 38t-116.5 38v-289 q98 -29 171.5 -61.5t144.5 -84.5t108.5 -130t37.5 -180q0 -115 -44 -208t-113.5 -149.5t-148.5 -89.5t-156 -37v-90q0 -61 -61.5 -61t-61.5 61v90q-51 4 -100.5 9.5t-120 22.5t-120.5 40.5t-86 67t-36 98.5zM471 1061q0 -47 32 -77t81 -42v254q-49 -12 -81 -47t-32 -88z M707 287q51 0 84.5 42t33.5 97q0 61 -29.5 94t-88.5 51v-284z" />
<glyph unicode="%" horiz-adv-x="1402" d="M35 1161q0 135 93 232.5t226 97.5t226.5 -98.5t93.5 -231.5t-93.5 -231.5t-226.5 -98.5q-137 0 -228 97.5t-91 232.5zM215 82q1 45 64 151l661 1149q31 55 58.5 82t68.5 27q51 0 86 -34t35 -81q0 -45 -64 -151l-661 -1149q-31 -55 -58.5 -82t-68.5 -27q-51 0 -86 34 t-35 81zM268 1161q0 -39 23.5 -67.5t62.5 -28.5t62.5 28.5t23.5 67.5t-23.5 67.5t-62.5 28.5t-62.5 -28.5t-23.5 -67.5zM729 297q0 135 93 232.5t226.5 97.5t226.5 -98.5t93 -231.5t-93 -231.5t-226 -98.5q-137 0 -228.5 97.5t-91.5 232.5zM963 297q0 -39 23.5 -67.5 t62 -28.5t62.5 28.5t24 67.5t-24 67.5t-62.5 28.5t-62 -28.5t-23.5 -67.5z" />
<glyph unicode="&#x26;" horiz-adv-x="1441" d="M41 401q0 156 86 257.5t244 181.5q-47 53 -72 87t-45.5 86t-20.5 109q0 160 119 256.5t297 96.5q182 0 306 -86t124 -265q0 -115 -68.5 -207t-181.5 -153l207 -240l80 99q29 35 43.5 51t41 32.5t54.5 14.5q53 0 99.5 -43t46.5 -96q0 -63 -113 -181l-74 -75l62 -70 q72 -80 72 -125q0 -61 -48.5 -102t-111.5 -41q-43 -2 -67.5 15t-63.5 63l-60 67q-199 -166 -481 -166q-199 0 -337 120t-138 314zM360 414q0 -82 55.5 -135.5t141.5 -53.5q137 1 262 107l-274 305q-94 -57 -139.5 -108.5t-45.5 -114.5zM528 1128q0 -47 26 -87t95 -97 q160 74 160 172q0 63 -40.5 100t-106.5 37q-53 0 -93.5 -34.5t-40.5 -90.5z" />
<glyph unicode="'" horiz-adv-x="530" d="M131 981v346q0 63 37 103t98.5 40t98 -39.5t36.5 -103.5v-346q0 -63 -36.5 -103t-98 -40t-98.5 40t-37 103z" />
<glyph unicode="(" horiz-adv-x="530" d="M80 573q0 426 129 746q39 90 71.5 131t92.5 41q61 0 101 -35t40 -94q0 -12 -38 -125t-76 -296t-38 -367.5t38 -367.5t76 -296t38 -125q0 -59 -40 -94t-101 -35q-59 0 -92 41t-72 131q-129 319 -129 745z" />
<glyph unicode=")" horiz-adv-x="530" d="M16 -215q0 12 38 125t76 296t38 367.5t-38 367.5t-76 296t-38 125q0 59 40 94t102 35q59 0 92 -41t72 -131q129 -320 129 -746t-129 -745q-39 -90 -72 -131t-92 -41q-61 0 -101.5 35t-40.5 94z" />
<glyph unicode="*" horiz-adv-x="796" d="M43 954q0 35 22.5 56.5t82 44t65.5 26.5q-6 4 -65.5 26.5t-82 44.5t-22.5 56q0 49 29.5 85t77.5 36q16 0 36.5 -8t33.5 -17.5t43 -30t42 -28.5q-2 18 -10 64.5t-8 64.5q0 49 31.5 72.5t78.5 23.5t79 -23.5t32 -72.5q0 -18 -8 -64t-11 -65q12 8 40 28.5t41.5 30t34 17.5 t38.5 8q47 0 79 -37t32 -84q0 -27 -19.5 -48t-40 -31.5t-58.5 -24.5t-54 -23q16 -8 54 -22.5t58.5 -24.5t40 -31.5t19.5 -48.5q0 -47 -32 -83.5t-79 -36.5q-18 0 -38.5 8t-34 17t-41 29.5t-40.5 29.5q2 -18 10.5 -64.5t8.5 -65.5q0 -49 -32 -72.5t-79 -23.5t-78.5 23.5 t-31.5 72.5q0 18 8 64.5t10 65.5q-12 -8 -42 -29t-43 -30t-33.5 -17t-36.5 -8q-47 0 -77 35.5t-30 84.5z" />
<glyph unicode="+" horiz-adv-x="1228" d="M35 580q0 63 39 99t104 36h301v301q0 66 36 104.5t99.5 38.5t99.5 -39t36 -104v-301h301q66 0 104.5 -36t38.5 -99.5t-39 -99.5t-104 -36h-301v-301q0 -66 -36 -104.5t-99.5 -38.5t-99.5 39t-36 104v301h-301q-63 0 -103 39t-40 97z" />
<glyph unicode="," horiz-adv-x="569" d="M-37 -170q0 41 31 98l168 301q53 94 145 95q68 0 112 -39t44 -101q0 -41 -31 -98l-168 -301q-53 -94 -145 -94q-68 0 -112 39t-44 100z" />
<glyph unicode="-" horiz-adv-x="872" d="M59 571.5q0 61.5 36.5 98.5t99.5 37h483q63 0 99 -37t36 -98.5t-36 -98.5t-99 -37h-483q-63 0 -99.5 37t-36.5 98.5z" />
<glyph unicode="." horiz-adv-x="569" d="M106 145q0 72 53.5 125.5t125 53.5t125 -53.5t53.5 -125.5q0 -74 -53.5 -126t-125 -52t-125 52t-53.5 126z" />
<glyph unicode="/" horiz-adv-x="948" d="M23 78q-1 47 77 194l551 1051q23 41 35 62.5t33.5 50t44 42t47.5 13.5q53 0 84 -29.5t31 -81.5q0 -47 -78 -194l-551 -1051q-23 -41 -35 -62.5t-33.5 -50t-44 -42t-47.5 -13.5q-53 0 -83.5 30t-30.5 81z" />
<glyph unicode="0" horiz-adv-x="1290" d="M35 729.5q0 147.5 37 281.5t109.5 242.5t192.5 173t271.5 64.5t271 -64.5t192.5 -173t109.5 -242.5t36.5 -281.5t-36.5 -282t-109.5 -243t-192.5 -173t-271 -64.5t-271.5 64.5t-192.5 173t-109.5 243t-37 282zM379 729.5q0 -104.5 21.5 -198t85 -169t159.5 -75.5 t159.5 75.5t85 169t21.5 198t-21.5 197.5t-85 168.5t-159.5 75.5t-159.5 -75.5t-85 -168.5t-21.5 -197.5z" />
<glyph unicode="1" horiz-adv-x="681" d="M-8 1304.5q0 61.5 41 107.5t112 46h271q166 0 166 -166v-1128q0 -86 -45 -131t-121 -45t-121 45t-45 131v987h-105q-72 0 -112.5 46t-40.5 107.5z" />
<glyph unicode="2" horiz-adv-x="1024" d="M0 145q0 43 31.5 97.5t67.5 93.5t87.5 90t65.5 66q6 6 55 61t80 91t80 98.5t78.5 108.5t53.5 97t24 86q0 137 -127 137q-74 0 -113 -48t-50 -106.5t-48 -106.5t-107 -48q-74 0 -116 48t-42 112q0 193 141.5 331t354.5 138q195 0 329 -123t134 -319q0 -102 -53.5 -213 t-111.5 -182.5t-161.5 -184.5t-142.5 -162h348q72 0 113 -46t41 -107.5t-41 -107.5t-113 -46h-670q-84 0 -136 41t-52 104z" />
<glyph unicode="3" horiz-adv-x="1062" d="M0 365q0 59 49 105t105 46q49 0 83.5 -23.5t56 -57.5t47.5 -67.5t70 -57t107 -23.5q72 0 119 51t47 123q0 156 -207 160q-57 2 -99 40.5t-42 114.5q0 66 37 96.5t137 55.5q125 27 125 135q0 53 -36 80.5t-89 27.5q-55 0 -100 -27.5t-70 -59t-66 -59.5t-92 -28 q-59 0 -97 47.5t-38 104.5q0 145 148.5 243.5t310.5 98.5q190 0 319 -108.5t129 -290.5q0 -174 -163 -297q115 -45 176 -143.5t61 -227.5q0 -197 -147.5 -327t-364.5 -130t-366.5 122t-149.5 276z" />
<glyph unicode="4" horiz-adv-x="1251" d="M-18 438q0 68 63 162l487 754q43 66 98.5 91t137.5 25q113 0 179.5 -68.5t66.5 -180.5v-619h69q168 0 168 -147.5t-168 -147.5h-69v-135q0 -90 -42 -137t-118 -47q-74 0 -117 47t-43 133v139h-547q-86 0 -125.5 41t-39.5 90zM387 602h307v522h-4z" />
<glyph unicode="5" horiz-adv-x="1024" d="M4 240q0 72 41 119t100 47q53 0 148.5 -59.5t175.5 -59.5q90 0 142.5 62.5t52.5 176.5q0 80 -44.5 137.5t-119.5 57.5q-70 0 -134.5 -37t-115.5 -37q-61 0 -97 33t-36 88q0 63 10 154l51 399q10 86 54 111.5t122 25.5h500q72 0 113 -46t41 -107.5t-41 -107.5t-113 -46 h-395l-23 -180q76 20 154 20q203 0 316.5 -139t113.5 -346q0 -227 -154.5 -383t-386.5 -156q-170 0 -322.5 80t-152.5 193z" />
<glyph unicode="6" horiz-adv-x="1101" d="M20 465q0 322 289 680q180 223 249 284.5t130 61.5q74 0 117 -54.5t43 -105.5q0 -47 -42 -99t-125 -140t-142 -174l4 -5q49 16 129 17q176 0 292.5 -139.5t116.5 -317.5q0 -215 -149.5 -360.5t-380.5 -145.5q-242 0 -386.5 137.5t-144.5 360.5zM365 473q0 -76 55 -131 t131 -55t131 55t55 131t-55 131t-131 55t-131 -55t-55 -131z" />
<glyph unicode="7" horiz-adv-x="985" d="M-6 1304.5q0 61.5 41 107.5t112 46h672q78 0 125 -49t47 -109q0 -47 -47 -151l-465 -1004q-18 -41 -29.5 -61.5t-33 -47t-52 -37.5t-71.5 -11q-74 0 -119 47t-45 102q0 47 53 158l408 856h-443q-72 0 -112.5 46t-40.5 107.5z" />
<glyph unicode="8" d="M35 442q0 104 49 197.5t147 153.5q-49 39 -92 115.5t-43 172.5q0 195 136.5 302.5t337 107.5t336.5 -107.5t136 -302.5q0 -96 -43 -173t-92 -115q98 -59 147.5 -152.5t49.5 -198.5q0 -203 -148.5 -339t-386 -136t-386 136.5t-148.5 338.5zM379 477q0 -80 55 -135t135 -55 t135.5 55t55.5 135t-55.5 135.5t-135.5 55.5t-135 -55.5t-55 -135.5zM428 1054.5q0 -57.5 42 -99.5t99.5 -42t99.5 42t42 99.5t-42 99.5t-99.5 42t-99.5 -42t-42 -99.5z" />
<glyph unicode="9" horiz-adv-x="1101" d="M20 985q0 215 149.5 360.5t381.5 145.5q242 0 386 -137.5t144 -360.5q0 -322 -288 -680q-180 -223 -249 -284.5t-130 -61.5q-74 0 -117 54.5t-43 105.5q0 47 42 99.5t125 140.5t142 174l-4 4q-49 -16 -129 -17q-176 0 -293 139.5t-117 317.5zM365 985q0 -76 55 -131 t131 -55t131 55t55 131t-55 131t-131 55t-131 -55t-55 -131z" />
<glyph unicode=":" horiz-adv-x="569" d="M106 145q0 72 53.5 125.5t125 53.5t125 -53.5t53.5 -125.5q0 -74 -53.5 -126t-125 -52t-125 52t-53.5 126zM106 784q0 72 53.5 125.5t125 53.5t125 -53.5t53.5 -125.5q0 -74 -53.5 -126t-125 -52t-125 52t-53.5 126z" />
<glyph unicode=";" horiz-adv-x="569" d="M-37 -170q0 41 31 98l168 301q53 94 145 95q68 0 112 -39t44 -101q0 -41 -31 -98l-168 -301q-53 -94 -145 -94q-68 0 -112 39t-44 100zM106 784q0 72 53.5 125.5t125 53.5t125 -53.5t53.5 -125.5q0 -74 -53.5 -126t-125 -52t-125 52t-53.5 126z" />
<glyph unicode="&#x3c;" horiz-adv-x="1228" d="M47 579.5q0 79.5 76 116.5l833 383q59 29 113 29q51 0 82 -33t31 -90q0 -88 -97 -129l-659 -276l659 -277q96 -41 97 -129q0 -57 -31 -90t-82 -33q-54 0 -113 29l-833 383q-76 37 -76 116.5z" />
<glyph unicode="=" horiz-adv-x="1228" d="M35 337.5q0 63.5 38.5 99.5t104.5 36h873q66 0 104.5 -36t38.5 -99.5t-39 -99t-104 -35.5h-873q-66 0 -104.5 35.5t-38.5 99zM35 821.5q0 63.5 38.5 99t104.5 35.5h873q66 0 104.5 -35.5t38.5 -99t-39 -99.5t-104 -36h-873q-66 0 -104.5 36t-38.5 99.5z" />
<glyph unicode="&#x3e;" horiz-adv-x="1228" d="M47 174q0 88 96 129l660 277l-660 276q-96 41 -96 129q0 57 31 90t82 33q53 0 112 -29l834 -383q76 -37 76 -116.5t-76 -116.5l-834 -383q-59 -29 -112 -29q-51 0 -82 33t-31 90z" />
<glyph unicode="?" horiz-adv-x="1024" d="M18 1128q0 162 148.5 262.5t318.5 100.5q211 0 358.5 -124t147.5 -331q0 -352 -354 -424v-41q0 -72 -44 -115.5t-115.5 -43.5t-116 43.5t-44.5 115.5v164q0 39 11.5 64.5t40 40t47 18.5t63.5 12q156 31 156 156q0 51 -41 92t-109 41q-51 0 -87 -19.5t-57.5 -46l-43 -53 t-54 -46t-77.5 -19.5q-61 0 -104.5 46t-43.5 107zM299 145q0 72 53.5 125.5t125 53.5t124.5 -53.5t53 -125.5q0 -74 -53 -126t-124.5 -52t-125 52t-53.5 126z" />
<glyph unicode="@" horiz-adv-x="1638" d="M72 727q0 326 228 545t554 219q299 0 506 -172t207 -455q0 -129 -42 -235.5t-103.5 -168t-135.5 -104.5t-132 -58t-99 -15q-117 0 -121 102h-4q-90 -102 -254 -102q-102 0 -185 98t-83 250q0 211 117.5 351t281.5 140q90 0 147.5 -29.5t102.5 -97.5l8 37q16 74 96 74 q39 0 64.5 -23.5t25.5 -64.5q0 -18 -8 -57l-63 -353q-12 -55 -13 -73q0 -39 39 -39q66 0 121 80.5t55 230.5q0 240 -146 370t-388 130q-233 0 -394 -169t-161 -411q0 -264 160.5 -419.5t412.5 -155.5q246 0 375 106q29 23 59.5 23t54 -22.5t23.5 -53.5q0 -33 -22 -53 q-66 -66 -195 -125.5t-295 -59.5q-332 0 -563 216t-231 544zM641 682q0 -166 137 -166q100 0 159.5 61.5t59.5 151.5q0 72 -41 116t-114 44q-86 0 -143.5 -62.5t-57.5 -144.5z" />
<glyph unicode="A" horiz-adv-x="1290" d="M-2 123q0 72 49 205l320 862q29 80 46 119t50 89t77 71.5t103 21.5q61 0 105.5 -21.5t78 -71.5t51 -89t46.5 -119l319 -862q49 -133 49 -205q0 -61 -44 -98t-115 -37q-74 0 -111 40t-64 122l-40 131h-545l-41 -131q-27 -82 -64 -122t-110 -40q-72 0 -116 36.5t-44 98.5z M471 588h348l-166 534h-4z" />
<glyph unicode="B" horiz-adv-x="1214" d="M80 166v1126q0 76 49 121t117 45h391q186 0 298 -105.5t112 -275.5q0 -176 -175 -278q133 -27 213 -124t80 -235q0 -188 -127 -314t-381 -126h-411q-68 0 -117 45t-49 121zM412 295h209q200 0 200 148q0 77 -58 114t-142 37h-209v-299zM412 889h151q72 0 112 34.5 t40 102.5q0 137 -152 137h-151v-274z" />
<glyph unicode="C" horiz-adv-x="1214" d="M43 729q0 336 198.5 549t524.5 213q176 0 308 -56.5t132 -174.5q0 -63 -41 -110.5t-102 -47.5q-33 0 -125 34.5t-164 34.5q-188 0 -281.5 -128t-93.5 -314q0 -182 91.5 -306t254.5 -124q119 0 208 34t118 34q59 0 95 -32t44.5 -61.5t8.5 -60.5q0 -66 -45.5 -115 t-117 -76.5t-147 -41t-149.5 -13.5q-332 0 -524.5 218t-192.5 544z" />
<glyph unicode="D" horiz-adv-x="1366" d="M80 166v1126q0 76 49 121t117 45h397q311 0 495.5 -211t184.5 -508q0 -344 -197.5 -541.5t-482.5 -197.5h-397q-68 0 -117 45t-49 121zM412 307h176q186 0 282.5 117t96.5 315q0 188 -94.5 300t-270.5 112h-190v-844z" />
<glyph unicode="E" horiz-adv-x="948" d="M80 166v1126q0 76 49 121t117 45h508q78 0 122 -42t44 -111q0 -72 -44.5 -113t-121.5 -41h-342v-264h313q78 0 122 -41t44 -112.5t-44 -112.5t-122 -41h-313v-273h354q78 0 122 -41t44 -112q0 -70 -44 -112t-122 -42h-520q-68 0 -117 45t-49 121z" />
<glyph unicode="F" horiz-adv-x="909" d="M80 164v1128q0 76 49 121t117 45h508q78 0 122 -42t44 -111q0 -72 -44.5 -113t-121.5 -41h-342v-260h299q78 0 122 -41t44 -112.5t-44.5 -112.5t-121.5 -41h-299v-420q0 -86 -46.5 -131t-120 -45t-119.5 45t-46 131z" />
<glyph unicode="G" horiz-adv-x="1478" d="M43 729q0 332 204 547t513 215q221 0 393 -87t172 -233q0 -61 -41 -100t-108 -39q-39 0 -83 23.5t-80 52.5t-99.5 52.5t-139.5 23.5q-170 0 -272.5 -130t-102.5 -325q0 -186 94.5 -320.5t274.5 -134.5q129 0 214 77t97 206h-190q-78 0 -122 42t-44 112q0 72 44 112.5 t122 40.5h358q176 0 176 -202q0 -299 -182 -497t-481 -198q-332 0 -524.5 218t-192.5 544z" />
<glyph unicode="H" horiz-adv-x="1441" d="M80 164v1130q0 86 46 131t119.5 45t120 -45t46.5 -131v-393h618v393q0 86 46 131t120 45t120 -45t46 -131v-1130q0 -86 -46 -131t-120 -45t-120 45t-46 131v430h-618v-430q0 -86 -46.5 -131t-120 -45t-119.5 45t-46 131z" />
<glyph unicode="I" horiz-adv-x="491" d="M80 164v1130q0 86 46 131t119.5 45t120 -45t46.5 -131v-1130q0 -86 -46.5 -131t-120 -45t-119.5 45t-46 131z" />
<glyph unicode="J" horiz-adv-x="872" d="M-16 207q0 66 38.5 112t112.5 46q41 0 102.5 -39t104.5 -39q66 0 92.5 49t26.5 172v786q0 86 46 131t119.5 45t120 -45t46.5 -131v-843q0 -76 -9.5 -137.5t-37 -129t-73.5 -112.5t-128 -75t-193 -30q-160 0 -266 70q-57 39 -79.5 73.5t-22.5 96.5z" />
<glyph unicode="K" horiz-adv-x="1214" d="M80 164v1130q0 86 46 131t119.5 45t120 -45t46.5 -131v-405l456 497q74 84 156 84q57 0 111.5 -48t54.5 -111.5t-66 -132.5l-395 -398l432 -469q35 -37 49.5 -54t28.5 -47t14 -58q0 -76 -50 -120t-124 -44q-41 0 -85 27.5t-59 44t-61 67.5l-462 520v-483 q0 -86 -46.5 -131t-120 -45t-119.5 45t-46 131z" />
<glyph unicode="L" horiz-adv-x="909" d="M80 166v1128q0 86 46 131t119.5 45t120 -45t46.5 -131v-987h356q78 0 122 -41t44 -112q0 -70 -44 -112t-122 -42h-522q-68 0 -117 45t-49 121z" />
<glyph unicode="M" horiz-adv-x="1781" d="M35 145q0 52 55 367l131 750q37 208 217 208h2q117 0 167 -70.5t120 -287.5l162 -502h4l162 502q70 217 120 287.5t166 70.5q182 0 220 -208l131 -750q55 -315 55 -367q0 -59 -43 -108t-113 -49q-53 0 -90 17.5t-56.5 52t-28.5 66.5t-17 83l-99 647h-4l-223 -717 q-25 -80 -66.5 -114.5t-115.5 -34.5t-116 34.5t-66 114.5l-224 717h-4l-98 -647q-8 -51 -17.5 -83t-29 -66.5t-56 -52t-90.5 -17.5q-70 0 -112.5 49t-42.5 108z" />
<glyph unicode="N" horiz-adv-x="1441" d="M80 164v1130q0 86 46 131t120 45q61 0 100 -31.5t129 -146.5l551 -690h4v692q0 86 46 131t120 45t120 -45t46 -131v-1130q0 -86 -46 -131t-120 -45q-63 0 -102 32.5t-127 145.5l-551 690h-4v-692q0 -86 -46.5 -131t-120 -45t-119.5 45t-46 131z" />
<glyph unicode="O" horiz-adv-x="1519" d="M43 729q0 346 195.5 554t521 208t521.5 -208t196 -554t-196 -554t-521.5 -208t-521 208t-195.5 554zM399 729.5q0 -190.5 90.5 -323t270.5 -132.5t270 132.5t90 323t-90 322.5t-270 132t-270.5 -132t-90.5 -322.5z" />
<glyph unicode="P" horiz-adv-x="1175" d="M80 164v1128q0 76 49 121t117 45h407q207 0 353.5 -130t146.5 -365q0 -219 -129 -356.5t-360 -137.5h-252v-305q0 -86 -46.5 -131t-120 -45t-119.5 45t-46 131zM412 764h178q100 0 159.5 58.5t59.5 140.5q0 96 -59.5 148t-159.5 52h-178v-399z" />
<glyph unicode="Q" horiz-adv-x="1519" d="M43 729q0 346 195.5 554t521 208t521.5 -208t196 -554q0 -281 -131 -471l79 -70q66 -57 86.5 -88.5t20.5 -72.5q0 -61 -39 -101.5t-98 -40.5q-43 0 -80.5 19t-100.5 76l-88 77q-156 -90 -366 -90q-326 0 -521.5 208t-195.5 554zM399 729.5q0 -190.5 90.5 -323 t270.5 -132.5q59 0 100 15l-4 2q-66 55 -86 88t-20 74q0 61 38.5 101t98.5 40q43 0 80 -18.5t100 -75.5l10 -8q43 106 43 237q0 190 -90 322.5t-270 132.5t-270.5 -132t-90.5 -322.5z" />
<glyph unicode="R" horiz-adv-x="1175" d="M80 164v1128q0 76 49 121t117 45h399q221 0 354.5 -124t133.5 -328q0 -162 -91.5 -271.5t-248.5 -138.5l288 -311q70 -76 70 -144q0 -49 -43 -101t-127 -52q-59 0 -91 18.5t-67 63.5l-407 514h-4v-420q0 -86 -46.5 -131t-120 -45t-119.5 45t-46 131zM412 829h219 q80 0 125 46.5t45 118t-48 114.5t-122 43h-219v-322z" />
<glyph unicode="S" horiz-adv-x="1099" d="M10 207q0 72 42 124t114 52q31 0 146.5 -42t211.5 -42q90 0 133 39t43 98q0 23 -6 42.5t-24.5 34.5t-32.5 26.5t-50 25t-55.5 20.5t-70.5 22.5t-76 23.5q-61 20 -103 36.5t-93.5 49.5t-81 70.5t-51 99t-21.5 137.5q0 225 150.5 346t373.5 121q195 0 304.5 -60.5 t109.5 -158.5q0 -68 -41 -112t-107 -44q-49 0 -128 27.5t-154 27.5q-68 0 -110 -32.5t-42 -85.5q0 -14 3 -25.5t10.5 -22t15.5 -17.5t25.5 -16t32 -15.5t43 -15.5t50 -16t61.5 -19.5t70 -22.5q78 -27 133.5 -55.5t109.5 -77t83 -123t29 -172.5q0 -240 -156 -364t-401 -124 q-106 0 -214 24.5t-192 82t-84 133.5z" />
<glyph unicode="T" horiz-adv-x="950" d="M-49 1305q0 72 45 112.5t127 40.5h704q82 0 127 -41t45 -112q0 -70 -45 -112t-127 -42h-186v-987q0 -86 -46 -131t-120 -45t-120 45t-46 131v987h-186q-82 0 -127 42t-45 112z" />
<glyph unicode="U" horiz-adv-x="1402" d="M70 586v708q0 86 45 131t120.5 45t120.5 -45t45 -131v-708q0 -141 85 -220t214 -79t215 78.5t86 220.5v708q0 86 46.5 131t120 45t119.5 -45t46 -131v-708q0 -285 -176 -452t-456.5 -167t-455.5 167t-175 452z" />
<glyph unicode="V" horiz-adv-x="1175" d="M-41 1309q0 66 46 113.5t116 47.5q45 0 76.5 -11t52 -36.5t30 -44t25.5 -57.5l283 -746l282 746q16 39 25.5 57.5t30 44t52.5 36.5t77 11q70 0 116 -48t46 -113q0 -37 -35 -121l-414 -1024q-43 -106 -74 -135q-43 -41 -110 -41q-53 0 -91 26.5t-52.5 55t-34.5 77.5 q-4 10 -7 17l-405 1024q-35 84 -35 121z" />
<glyph unicode="W" horiz-adv-x="1859" d="M-8 1309q0 68 46 114.5t120 46.5q139 0 172 -147l170 -786h4l239 763q31 92 75 131t111.5 39t111.5 -38.5t75 -131.5l240 -763h4l170 786q33 147 172 147q74 0 120 -47t46 -114q0 -33 -33 -170l-221 -903q-33 -135 -78 -191.5t-156 -56.5q-176 0 -235 182l-213 668h-4 l-213 -668q-59 -182 -236 -182q-111 0 -155.5 56.5t-77.5 191.5l-221 903q-33 137 -33 170z" />
<glyph unicode="X" horiz-adv-x="1253" d="M0 150q0 45 13.5 72.5t58.5 86.5l354 475l-291 385q-61 82 -61 148q0 61 46 107t128 46q43 0 80 -24.5t55 -47t57 -79.5l187 -258l186 258q39 57 57.5 79.5t55.5 47t80 24.5q82 0 128 -46t46 -107q0 -66 -62 -148l-291 -385l355 -475q45 -59 58 -86.5t13 -72.5 q0 -70 -46 -116t-115 -46q-90 0 -162 98l-303 414l-303 -414q-72 -98 -162 -98q-70 0 -116 46t-46 116z" />
<glyph unicode="Y" horiz-adv-x="1101" d="M-39 1323q0 66 50 106.5t126 40.5q41 0 77 -20t51.5 -38.5t39.5 -53.5l246 -350l246 350q25 35 40 53.5t51 38.5t77 20q76 0 126 -40.5t50 -106.5q0 -47 -23.5 -88t-113.5 -166l-287 -385v-520q0 -86 -45 -131t-121 -45t-121 45t-45 131v520l-287 385q-113 158 -127 197 q-10 27 -10 57z" />
<glyph unicode="Z" horiz-adv-x="1099" d="M-23 182q0 61 62 146l627 835h-490q-84 0 -130 41t-46 106.5t46 106.5t130 41h713q117 0 160 -52t43 -114q0 -47 -36 -106.5t-120 -171.5l-530 -707h540q84 0 130 -42t46 -111.5t-46 -111.5t-130 -42h-735q-233 0 -234 182z" />
<glyph unicode="[" horiz-adv-x="720" d="M164 -203v1553q0 141 141 141h281q51 0 83.5 -33t32.5 -84t-32.5 -84t-83.5 -33h-140v-1368h140q51 0 83.5 -32.5t32.5 -84t-32.5 -84t-83.5 -32.5h-281q-141 0 -141 141z" />
<glyph unicode="\" horiz-adv-x="948" d="M23 1380q0 51 30.5 81t83.5 30q33 0 64.5 -28.5t49 -56.5t46.5 -83l551 -1051q78 -147 78 -194q0 -51 -31 -81t-84 -30q-33 0 -64.5 29t-49 56.5t-46.5 82.5l-551 1051q-78 147 -77 194z" />
<glyph unicode="]" horiz-adv-x="720" d="M18 -227.5q0 51.5 33 84t84 32.5h139v1368h-139q-51 0 -84 33t-33 84t33 84t84 33h281q141 0 141 -141v-1553q0 -141 -141 -141h-281q-51 0 -84 32.5t-33 84z" />
<glyph unicode="^" horiz-adv-x="1228" d="M137 719q0 39 27 90l315 573q47 88 135 88t136 -88l315 -573q27 -51 27 -90q0 -74 -105 -74q-51 0 -82.5 17.5t-58.5 64.5l-232 424l-231 -424q-27 -47 -58.5 -64.5t-82.5 -17.5q-104 0 -105 74z" />
<glyph unicode="_" horiz-adv-x="1024" d="M-59 -205q0 51 59 51h1024q59 0 59 -51t-59 -51h-1024q-59 0 -59 51z" />
<glyph unicode="`" horiz-adv-x="454" d="M-139 1479q0 59 36.5 100t96.5 41q43 0 84 -18l307 -134q76 -29 76 -112q0 -59 -37 -100.5t-96 -41.5q-43 0 -84 19l-307 133q-76 29 -76 113z" />
<glyph unicode="a" horiz-adv-x="1175" d="M31 544.5q0 241.5 142 409.5t351 168q174 0 275 -123q47 102 149 103q70 0 115 -48t45 -118v-782q0 -70 -45 -118t-115 -48q-102 0 -149 102q-100 -123 -275 -123q-209 0 -351 168t-142 409.5zM350 544.5q0 -114.5 58.5 -192.5t161 -78t160.5 78t58 192.5t-58 192.5 t-160.5 78t-161 -78t-58.5 -192.5z" />
<glyph unicode="b" horiz-adv-x="1175" d="M68 154v1257q0 70 45 118t114.5 48t114.5 -48t45 -118v-379q111 90 264 90q209 0 351.5 -168t142.5 -409.5t-142.5 -409.5t-351.5 -168q-174 0 -274 123q-47 -102 -150 -102q-70 0 -114.5 48t-44.5 118zM387 544.5q0 -114.5 58.5 -192.5t161 -78t160.5 78t58 192.5 t-58 192.5t-160.5 78t-161 -78t-58.5 -192.5z" />
<glyph unicode="c" horiz-adv-x="948" d="M31 545q0 246 150.5 411.5t387.5 165.5q61 0 121 -9t121 -31.5t99 -66.5t38 -104q0 -63 -38 -106t-93 -43q-35 0 -98.5 26.5t-130.5 26.5q-117 0 -177.5 -76.5t-60.5 -193.5q0 -115 58.5 -193t160.5 -78q80 0 158 28t90 28q53 0 92 -44t39 -98q0 -74 -70.5 -127 t-152.5 -73.5t-156 -20.5q-238 0 -388 166t-150 412z" />
<glyph unicode="d" horiz-adv-x="1175" d="M31 544.5q0 241.5 142 409.5t351 168q154 0 264 -90v379q0 70 45.5 118t115 48t114.5 -48t45 -118v-1257q0 -70 -45 -118t-115 -48q-102 0 -149 102q-100 -123 -275 -123q-209 0 -351 168t-142 409.5zM350 544.5q0 -114.5 58.5 -192.5t161 -78t160.5 78t58 192.5 t-58 192.5t-160.5 78t-161 -78t-58.5 -192.5z" />
<glyph unicode="e" d="M31 545q0 236 159.5 406.5t399.5 170.5q227 0 372.5 -161.5t145.5 -380.5q0 -80 -37 -110t-119 -30h-577q0 -66 59.5 -122t196.5 -56q90 0 195.5 50t131.5 50q55 0 94.5 -38.5t39.5 -98.5q0 -111 -155 -184.5t-347 -73.5q-252 0 -405.5 165t-153.5 413zM375 659h413 q0 61 -60 127t-146 66t-146.5 -66t-60.5 -127z" />
<glyph unicode="f" horiz-adv-x="681" d="M-49 942.5q0 147.5 168 147.5h37v143q0 147 93 245.5t238 98.5q213 0 213 -147.5t-151 -147.5q-39 0 -56.5 -22.5t-17.5 -81.5v-88h88q168 0 168 -147.5t-168 -147.5h-88v-641q0 -70 -45 -118t-114.5 -48t-114.5 48t-45 118v641h-37q-168 0 -168 147.5z" />
<glyph unicode="g" horiz-adv-x="1175" d="M31 545q0 242 142 409.5t351 167.5q174 0 275 -123q47 102 149 103q70 0 115 -48t45 -118v-830q0 -147 -46 -258.5t-127 -176t-183.5 -95.5t-223.5 -31q-68 0 -145.5 13.5t-154 40t-127 74.5t-50.5 110q0 53 42 96t91 43q35 0 134.5 -47t203.5 -47q143 0 204.5 71.5 t61.5 211.5h-4q-88 -123 -290 -123q-221 0 -342 162.5t-121 394.5zM350 545q0 -121 58.5 -198t161 -77t160.5 77t58 198q0 115 -58 192.5t-160.5 77.5t-161 -78t-58.5 -192z" />
<glyph unicode="h" d="M74 154v1257q0 70 45 118t114.5 48t114.5 -48t45 -118v-369h4q127 80 271 80q176 0 286.5 -94t110.5 -283v-591q0 -70 -45 -118t-114.5 -48t-115 48t-45.5 118v505q0 84 -47 138.5t-129 54.5t-129 -54.5t-47 -138.5v-505q0 -70 -45 -118t-114.5 -48t-114.5 48t-45 118z " />
<glyph unicode="i" horiz-adv-x="454" d="M37 1386.5q0 79.5 56.5 135t134 55.5t134 -55.5t56.5 -135t-56.5 -135t-134 -55.5t-134 55.5t-56.5 135zM68 154v782q0 70 45 118t114.5 48t114.5 -48t45 -118v-782q0 -70 -45 -118t-114.5 -48t-114.5 48t-45 118z" />
<glyph unicode="j" horiz-adv-x="454" d="M37 1386.5q0 79.5 56.5 135t134 55.5t134 -55.5t56.5 -135t-56.5 -135t-134 -55.5t-134 55.5t-56.5 135zM68 -289v1225q0 70 45 118t114.5 48t114.5 -48t45 -118v-1225q0 -70 -45 -118t-114.5 -48t-114.5 48t-45 118z" />
<glyph unicode="k" horiz-adv-x="1024" d="M74 154v1257q0 70 45 118t114.5 48t114.5 -48t45 -118v-680l260 260l16.5 16.5l16.5 16.5t15.5 14.5t17.5 15.5t16 13t17.5 12t17.5 9.5t19.5 7.5t20.5 4t24 2q68 0 111.5 -43t43.5 -105q0 -39 -23.5 -71.5t-88.5 -96.5l-172 -170l268 -340q76 -94 76 -141 q0 -53 -41 -100t-117 -47q-55 0 -89 21.5t-85 86.5l-320 418h-4v-360q0 -70 -45 -118t-114.5 -48t-114.5 48t-45 118z" />
<glyph unicode="l" horiz-adv-x="454" d="M68 154v1257q0 70 45 118t114.5 48t114.5 -48t45 -118v-1257q0 -70 -45 -118t-114.5 -48t-114.5 48t-45 118z" />
<glyph unicode="m" horiz-adv-x="1744" d="M74 154v782q0 70 45 118t114 48q115 0 160 -103q37 59 112 91t163 32q193 0 297 -131q53 41 85.5 62.5t96 45t127.5 23.5q176 0 286.5 -94t110.5 -283v-591q0 -70 -45 -118t-114.5 -48t-114.5 48t-45 118v505q0 80 -42 136.5t-118 56.5t-118 -56.5t-42 -136.5v-505 q0 -70 -45 -118t-114.5 -48t-114.5 48t-45 118v505q0 80 -42 136.5t-118 56.5t-118 -56.5t-42 -136.5v-505q0 -70 -45 -118t-114.5 -48t-114.5 48t-45 118z" />
<glyph unicode="n" d="M74 154v782q0 70 45 118t114 48q115 0 160 -103q78 123 275 123q176 0 286.5 -94t110.5 -283v-591q0 -70 -45 -118t-114.5 -48t-115 48t-45.5 118v505q0 84 -47 138.5t-129 54.5t-129 -54.5t-47 -138.5v-505q0 -70 -45 -118t-114.5 -48t-114.5 48t-45 118z" />
<glyph unicode="o" d="M31 545q0 246 150.5 411.5t388 165.5t388 -165.5t150.5 -411.5t-150.5 -412t-388 -166t-388 166t-150.5 412zM350 544.5q0 -114.5 58.5 -192.5t161 -78t160.5 78t58 192.5t-58 192.5t-160.5 78t-161 -78t-58.5 -192.5z" />
<glyph unicode="p" horiz-adv-x="1175" d="M68 -289v1225q0 70 45 118t114 48q102 0 150 -103q100 123 274 123q209 0 351.5 -168t142.5 -409.5t-142.5 -409.5t-351.5 -168q-154 0 -264 90v-346q0 -70 -45 -118t-114.5 -48t-114.5 48t-45 118zM387 544.5q0 -114.5 58.5 -192.5t161 -78t160.5 78t58 192.5t-58 192.5 t-160.5 78t-161 -78t-58.5 -192.5z" />
<glyph unicode="q" horiz-adv-x="1175" d="M31 544.5q0 241.5 142 409.5t351 168q174 0 275 -123q51 102 149 103q70 0 115 -48t45 -118v-1225q0 -70 -45 -118t-114.5 -48t-115 48.5t-45.5 117.5v346q-111 -90 -264 -90q-209 0 -351 168t-142 409.5zM350 544.5q0 -114.5 58.5 -192.5t161 -78t160.5 78t58 192.5 t-58 192.5t-160.5 78t-161 -78t-58.5 -192.5z" />
<glyph unicode="r" horiz-adv-x="720" d="M74 154v782q0 70 45 118t114 48q115 0 160 -103q102 123 221 123q66 0 115 -47t49 -119q0 -76 -46 -107.5t-154.5 -64t-146.5 -77.5t-38 -164v-389q0 -70 -45 -118t-114.5 -48t-114.5 48t-45 118z" />
<glyph unicode="s" horiz-adv-x="872" d="M18 188q0 66 38 110t94 44q45 0 139 -46t168 -46q90 0 90 63q0 18 -7.5 31.5t-31 27t-44 21.5t-72.5 28.5t-93 37.5q-135 55 -193.5 117.5t-58.5 183.5q0 145 113.5 253.5t298.5 108.5q74 0 153.5 -20.5t147 -75.5t67.5 -131q0 -59 -37.5 -97t-95.5 -38q-27 0 -114.5 40 t-141.5 40q-35 0 -59.5 -17.5t-24.5 -50.5t51.5 -59.5t125 -52t147.5 -61.5t125 -105.5t51 -167.5q0 -164 -119 -261.5t-291 -97.5q-164 0 -295 60.5t-131 160.5z" />
<glyph unicode="t" horiz-adv-x="681" d="M-49 942.5q0 147.5 168 147.5h37v208q0 70 45 118t114.5 48t114.5 -48t45 -118v-208h88q168 0 168 -147.5t-168 -147.5h-88v-641q0 -70 -45 -118t-114.5 -48t-114.5 48t-45 118v641h-37q-168 0 -168 147.5z" />
<glyph unicode="u" d="M74 393v543q0 70 45 118t114.5 48t114.5 -48t45 -118v-498q0 -84 53.5 -130t123 -46t122.5 46t53 130v498q0 70 45.5 118t115 48t114.5 -48t45 -118v-543q0 -209 -140.5 -317.5t-355.5 -108.5t-355 108.5t-140 317.5z" />
<glyph unicode="v" horiz-adv-x="950" d="M-10 942q0 66 47 113t113 47q113 0 153 -121l170 -483h4l170 483q41 121 154 121q66 0 113 -47t47 -113q0 -55 -50 -178l-260 -647q-53 -129 -176 -129t-176 129l-260 647q-49 123 -49 178z" />
<glyph unicode="w" horiz-adv-x="1556" d="M-10 948q0 66 43 110t119 44q119 0 151 -113l156 -518h4l143 449q14 43 23.5 65.5t29 55t49 47t70.5 14.5t71 -14.5t49.5 -47t28.5 -55t23 -65.5l144 -449h4l155 518q33 113 152 113q76 0 119 -44t43 -110q-4 -57 -49 -178l-224 -625q-29 -82 -74.5 -119.5t-123.5 -37.5 q-80 0 -120 39t-71 129l-125 376h-4l-125 -376q-31 -90 -70.5 -129t-119.5 -39q-78 0 -124 37.5t-75 119.5l-223 625q-45 121 -49 178z" />
<glyph unicode="x" horiz-adv-x="1024" d="M-16 147q0 64 63 138l272 288l-165 177q-57 61 -76 82.5t-33 48t-14 55.5q0 74 47 120t106 46q55 0 89 -16.5t69 -61.5l170 -211l170 211q35 45 68.5 61.5t89.5 16.5q59 0 106 -46t47 -120q0 -39 -22.5 -70.5t-100.5 -115.5l-165 -177l272 -288q63 -74 63 -138 q0 -72 -48 -115.5t-115 -43.5q-72 0 -142 82l-223 260l-223 -260q-70 -82 -142 -82q-68 0 -115.5 44t-47.5 115z" />
<glyph unicode="y" horiz-adv-x="1024" d="M0 952q0 68 46 109t110 41q117 0 163 -121l189 -487l178 434q35 86 74 130t100 44q74 0 119 -44t45 -118q0 -51 -39 -139l-473 -1104q-18 -43 -27.5 -60.5t-30 -44t-49 -37t-67.5 -10.5q-78 0 -118 47.5t-40 96.5q0 55 53 176l107 239l-272 650q-68 158 -68 198z" />
<glyph unicode="z" horiz-adv-x="948" d="M-10 113q0 50 49 118l410 564h-281q-168 0 -168 147.5t168 147.5h614q82 0 121 -39q29 -29 29 -76q0 -35 -41 -92l-438 -588h338q168 0 168 -147q0 -148 -168 -148h-648q-68 0 -106 23q-47 31 -47 90z" />
<glyph unicode="{" horiz-adv-x="720" d="M4 573q0 41 25.5 70t73 29t73 25.5t25.5 109.5v416q0 268 272 268h152q41 0 66.5 -23.5t25.5 -68.5t-25.5 -68.5t-66.5 -23.5h-52q-90 0 -90 -119v-406q0 -66 -22.5 -109.5t-63.5 -62t-67.5 -24.5t-67.5 -11v-4q41 -4 67.5 -10t67.5 -24.5t63.5 -62.5t22.5 -109v-406 q0 -119 90 -119h52q41 0 66.5 -23.5t25.5 -68.5t-25.5 -68.5t-66.5 -23.5h-152q-272 0 -272 268v416q0 84 -25.5 109.5t-73 25.5t-73 28.5t-25.5 69.5z" />
<glyph unicode="|" horiz-adv-x="454" d="M104 -512v2048q0 57 32 95t91.5 38t91 -38t31.5 -95v-2048q0 -57 -31.5 -95t-91 -38t-91.5 38t-32 95z" />
<glyph unicode="}" horiz-adv-x="720" d="M4 -252q0 45 25.5 68.5t66.5 23.5h51q90 0 91 119v406q0 66 22.5 109.5t63.5 62t67.5 24.5t67.5 10v4q-41 4 -67.5 10.5t-67.5 25t-63.5 62.5t-22.5 109v406q0 119 -91 119h-51q-41 0 -66.5 23.5t-25.5 68.5t25.5 68.5t66.5 23.5h152q272 0 272 -268v-416 q0 -84 25.5 -109.5t73 -25.5t73 -29t25.5 -70t-25.5 -69.5t-73 -28.5t-73 -25.5t-25.5 -109.5v-416q0 -268 -272 -268h-152q-41 0 -66.5 23.5t-25.5 68.5z" />
<glyph unicode="~" horiz-adv-x="1228" d="M84 502q0 109 82 195.5t207 86.5q96 0 254.5 -69.5t201.5 -69.5q59 0 124 61.5t104 61.5q88 0 88 -111q0 -109 -84 -195.5t-217 -86.5q-88 0 -244 69.5t-201 69.5q-59 0 -123.5 -61.5t-103.5 -61.5q-88 0 -88 111z" />
<glyph unicode="&#xa1;" horiz-adv-x="532" d="M88 944q0 74 53.5 126t125 52t124.5 -52t53 -126q0 -72 -53 -125t-124.5 -53t-125 53t-53.5 125zM106 -221v719q0 76 43.5 128t117 52t116.5 -52.5t43 -127.5v-719q0 -76 -43 -128t-116.5 -52t-117 52t-43.5 128z" />
<glyph unicode="&#xa2;" horiz-adv-x="1290" d="M186 544.5q0 229.5 132.5 391.5t349.5 186v119q0 25 18.5 44.5t43 19.5t43 -19.5t18.5 -44.5v-119q127 -10 220 -60t93 -151q0 -63 -38 -106t-93 -43q-37 0 -89.5 21.5t-92.5 27.5v-530q51 6 108 27.5t74 21.5q53 0 92 -44t39 -98q0 -92 -98.5 -150t-214.5 -71v-131 q0 -25 -18.5 -44t-43 -19t-43 19t-18.5 44v131q-217 23 -349.5 185.5t-132.5 392zM506 545q0 -96 43 -169t119 -93v520q-78 -20 -120 -91t-42 -167z" />
<glyph unicode="&#xa3;" horiz-adv-x="1290" d="M29 733.5q0 61.5 46 107.5t128 46h67q-45 115 -45 178q0 197 147.5 311.5t393.5 114.5q141 0 248.5 -39t164 -99.5t84 -119.5t27.5 -115q0 -61 -47 -106t-108 -45q-45 0 -75 23.5t-49.5 57t-44 67.5t-74.5 57.5t-126 23.5q-82 0 -139.5 -43t-57.5 -123q0 -35 39 -145v2 h180q82 0 128.5 -46t46.5 -107.5t-46.5 -107.5t-128.5 -46h-135q0 -86 -15 -141.5t-65 -119.5h543q82 0 131 -44t49 -115.5t-49 -115.5t-131 -44h-756q-84 0 -140 40t-56 120q0 51 22.5 92t50 68.5t56.5 95t39 164.5h-129q-82 0 -128 46t-46 107.5z" />
<glyph unicode="&#xa4;" horiz-adv-x="1265" d="M20 584q0 35 28 65.5t71 30.5h6v16q0 8 -1 20.5t-1 20.5q0 4 1 20.5t1 37.5h-6q-37 0 -68 30.5t-31 69.5q0 35 28 65.5t71 30.5h39q35 135 114.5 241.5t180.5 168.5q145 90 344 90q164 0 278 -51q137 -63 137 -180q0 -63 -39.5 -110.5t-107.5 -47.5q-31 0 -96 28 q-96 41 -174 41q-111 0 -193 -69q-53 -43 -82 -111h377q43 0 70.5 -30.5t27.5 -65.5q0 -39 -30.5 -69.5t-67.5 -30.5h-426q0 -2 -2 -22.5t-2 -33.5q0 -8 1 -23.5t1 -23.5v-12h338q43 0 70.5 -31t27.5 -65q0 -39 -30.5 -70t-67.5 -31h-293q6 -20 27 -57q16 -27 37 -47 q80 -80 213 -80q104 0 202 45q51 23 84 23q61 0 101 -33q14 -12 24 -31q23 -41 23 -82q0 -123 -146 -194q-47 -23 -121 -41q-82 -18 -172 -19q-276 0 -452 180q-131 133 -180 336h-35q-37 0 -68 31t-31 70z" />
<glyph unicode="&#xa5;" horiz-adv-x="1290" d="M55 1323q0 66 50.5 106.5t125.5 40.5q41 0 77 -20t51.5 -38.5t39.5 -53.5l246 -350l246 350q25 35 40 53.5t51 38.5t77 20q76 0 126 -40.5t50 -106.5q0 -47 -23.5 -88t-113.5 -166l-148 -188h156q39 0 68.5 -29t29.5 -68t-29.5 -69.5t-68.5 -30.5h-295v-115h295 q39 0 68.5 -28.5t29.5 -67.5t-29.5 -69.5t-68.5 -30.5h-295v-209q0 -86 -45 -131t-121 -45t-121 45t-45 131v209h-295q-39 0 -68.5 30.5t-29.5 69.5t29.5 67.5t68.5 28.5h295v115h-295q-39 0 -68.5 30.5t-29.5 69.5t29.5 68t68.5 29h156l-147 188q-113 158 -127 197 q-10 27 -11 57z" />
<glyph unicode="&#xa6;" horiz-adv-x="454" d="M104 -225v450q0 57 32 95t91.5 38t91 -37.5t31.5 -95.5v-450q0 -57 -31.5 -95t-91 -38t-91.5 38t-32 95zM104 799v450q0 57 32 95t91.5 38t91 -37.5t31.5 -95.5v-450q0 -57 -31.5 -95t-91 -38t-91.5 38t-32 95z" />
<glyph unicode="&#xa7;" horiz-adv-x="1251" d="M119 580q0 199 196 315q-59 51 -81.5 102.5t-22.5 130.5q0 158 116.5 260.5t305.5 102.5q170 0 298 -85t128 -208q0 -51 -37 -94t-90 -43q-41 0 -79 28.5t-65.5 63.5t-71.5 63.5t-91 28.5q-45 0 -76 -24.5t-31 -65.5q0 -59 63.5 -108.5t153.5 -92.5t180.5 -93t154 -135 t63.5 -194q0 -227 -191 -327q111 -92 111 -201q0 -186 -120 -285.5t-308 -99.5q-174 0 -306.5 82t-132.5 207q0 53 36 93t97 40q39 0 74 -27.5t58.5 -60.5t69.5 -60.5t106 -27.5q51 0 84.5 22.5t33.5 65.5q0 53 -64.5 104.5t-156.5 97.5t-184 100t-156.5 138.5t-64.5 186.5z M401 625q0 -29 29 -61t53.5 -48t83.5 -51l199 -119q84 51 84 131q0 43 -41 78t-123 82l-201 119q-84 -51 -84 -131z" />
<glyph unicode="&#xa8;" horiz-adv-x="454" d="M-170 1417.5q0 65.5 47 112.5t112.5 47t113 -47t47.5 -112.5t-47.5 -113t-113 -47.5t-112.5 47.5t-47 113zM305 1417.5q0 65.5 47 112.5t112.5 47t113 -47t47.5 -112.5t-47.5 -113t-113 -47.5t-112.5 47.5t-47 113z" />
<glyph unicode="&#xa9;" horiz-adv-x="1638" d="M57 729q0 176 63.5 322.5t170 240.5t243 146.5t286 52.5t285.5 -52.5t242.5 -146.5t170 -240.5t63.5 -322.5t-63.5 -322.5t-170 -240.5t-242.5 -146.5t-285.5 -52.5t-286 52.5t-243 146.5t-170 240.5t-63.5 322.5zM291 729q0 -254 151.5 -415.5t376.5 -161.5 q223 0 376 161.5t153 415.5t-153 416t-376 162q-225 0 -376.5 -162t-151.5 -416zM442 735q0 193 110 317t294 124q147 0 242.5 -79t95.5 -167q0 -51 -29 -76t-57 -25q-70 0 -107 89q-31 74 -145 73q-84 0 -133 -67.5t-49 -184.5q0 -115 50 -186.5t136 -71.5q102 0 143 78 q27 49 50.5 70.5t62.5 21.5t62.5 -24.5t23.5 -65.5q0 -76 -98.5 -170t-243.5 -94q-182 0 -295 125t-113 313z" />
<glyph unicode="&#xaa;" horiz-adv-x="761" d="M23 1149q0 143 94 242.5t235 99.5q115 0 180 -72q27 72 97 72q110 0 110 -90v-510q0 -41 -28.5 -65.5t-81.5 -24.5q-70 0 -97 71q-70 -72 -180 -71q-141 0 -235 100t-94 248zM244 1144.5q0 -59.5 37.5 -103.5t99.5 -44q63 0 100 44.5t37 103.5q0 61 -37 105t-100 44 q-61 0 -99 -45t-38 -104.5z" />
<glyph unicode="&#xab;" horiz-adv-x="1214" d="M123 571q0 106 82 168l172 125q59 43 104 43q47 0 76 -31.5t29 -76.5q0 -72 -56 -109l-182 -119l182 -120q55 -35 56 -107q0 -45 -29 -76.5t-76 -31.5q-45 0 -104 43l-172 124q-82 57 -82 168zM629 571q0 106 82 168l172 125q59 43 104 43q47 0 76 -31.5t29 -76.5 q0 -72 -56 -109l-182 -119l182 -120q55 -35 56 -107q0 -45 -29 -76.5t-76 -31.5q-45 0 -104 43l-172 124q-82 57 -82 168z" />
<glyph unicode="&#xac;" horiz-adv-x="1228" d="M35 821.5q0 63.5 38.5 99t104.5 35.5h852q98 0 131 -34.5t33 -128.5v-416q0 -63 -35 -103.5t-94 -40.5t-94 40t-35 104v309h-758q-66 0 -104.5 36t-38.5 99.5z" />
<glyph unicode="&#xad;" horiz-adv-x="872" d="M59 571.5q0 61.5 36.5 98.5t99.5 37h483q63 0 99 -37t36 -98.5t-36 -98.5t-99 -37h-483q-63 0 -99.5 37t-36.5 98.5z" />
<glyph unicode="&#xae;" horiz-adv-x="1638" d="M57 729q0 176 63.5 322.5t170 240.5t243 146.5t286 52.5t285.5 -52.5t242.5 -146.5t170 -240.5t63.5 -322.5t-63.5 -322.5t-170 -240.5t-242.5 -146.5t-285.5 -52.5t-286 52.5t-243 146.5t-170 240.5t-63.5 322.5zM291 729q0 -254 151.5 -415.5t376.5 -161.5 q223 0 376 161.5t153 415.5t-153 416t-376 162q-225 0 -376.5 -162t-151.5 -416zM516 426v621q0 43 26.5 67.5t65.5 24.5h256q147 0 221 -55.5t74 -190.5q0 -104 -55 -164.5t-133 -64.5l143 -193q25 -33 25 -70q0 -20 -21.5 -43.5t-64.5 -23.5q-35 0 -55.5 14t-47.5 53 l-188 263h-62v-238q0 -45 -25.5 -68.5t-66.5 -23.5q-39 0 -65.5 24.5t-26.5 67.5zM700 811h154q109 0 109 90t-109 90h-154v-180z" />
<glyph unicode="&#xaf;" horiz-adv-x="454" d="M-147 1417.5q0 59.5 35 94t94 34.5h491q61 0 95 -34.5t34 -94t-33.5 -94.5t-95.5 -35h-491q-59 0 -94 35t-35 94.5z" />
<glyph unicode="&#xb0;" horiz-adv-x="819" d="M117 1198q0 123 85 208t207.5 85t207.5 -85t85 -208t-85 -208t-207.5 -85t-207.5 85t-85 208zM264 1198q0 -59 44 -102t101.5 -43t101.5 43t44 102t-44 102t-101.5 43t-101.5 -43t-44 -102z" />
<glyph unicode="&#xb1;" horiz-adv-x="1228" d="M35 135.5q0 63.5 38.5 99t104.5 35.5h873q66 0 104.5 -35.5t38.5 -99t-39 -99.5t-104 -36h-873q-66 0 -104.5 36t-38.5 99.5zM35 745.5q0 63.5 38.5 99.5t104.5 36h301v135q0 66 36 104.5t99.5 38.5t99.5 -39t36 -104v-135h301q66 0 104.5 -36t38.5 -99.5t-39 -99.5 t-104 -36h-301v-135q0 -66 -36 -104.5t-99.5 -38.5t-99.5 39t-36 104v135h-301q-66 0 -104.5 36t-38.5 99.5z" />
<glyph unicode="&#xb2;" horiz-adv-x="739" d="M33 682q0 41 66.5 112.5t144.5 137t143.5 143.5t65.5 133q0 35 -29 54.5t-62 19.5q-45 0 -68.5 -26.5t-29.5 -57.5t-32.5 -57.5t-73.5 -26.5q-53 0 -81 28.5t-28 65.5q0 117 92 200t236 83q131 0 220 -74t89 -192q0 -61 -36 -129t-70.5 -107t-106.5 -107.5t-90 -88.5h225 q47 0 73 -29t26 -70t-26 -69.5t-73 -28.5h-450q-49 0 -87 24.5t-38 61.5z" />
<glyph unicode="&#xb3;" horiz-adv-x="763" d="M45 819q0 41 27.5 67.5t72.5 26.5q37 0 65 -18t42 -42t47 -42t84 -18q41 0 71.5 28.5t30.5 63.5q0 47 -33.5 66.5t-75.5 19.5t-77 20.5t-35 67.5q0 43 30 65.5t64.5 25.5t64.5 21.5t30 57.5q0 53 -84 53q-51 0 -103.5 -44t-101.5 -44q-39 0 -63.5 28.5t-24.5 63.5 q0 94 96 149.5t211 55.5q119 0 205 -65.5t86 -174t-115 -174.5q78 -31 119 -90t41 -133q0 -121 -96.5 -195.5t-241.5 -74.5q-129 0 -232.5 70.5t-103.5 164.5z" />
<glyph unicode="&#xb4;" horiz-adv-x="454" d="M-6 1356q0 84 76 112l307 134q41 18 84 18q59 0 96 -41t37 -100q0 -84 -76 -113l-307 -133q-41 -18 -84 -19q-59 0 -96 41t-37 101z" />
<glyph unicode="&#xb6;" horiz-adv-x="1269" d="M20 1094q0 205 132.5 284.5t371.5 79.5h520q57 0 90 -33.5t33 -89.5v-1581q0 -55 -32.5 -89t-90 -34t-90 34t-32.5 89v1520h-199v-1520q0 -55 -33 -89t-90 -34t-90 34t-33 89v989q-221 0 -339 92.5t-118 258.5z" />
<glyph unicode="&#xb7;" horiz-adv-x="569" d="M106 569q0 72 53.5 125.5t125 53.5t125 -53.5t53.5 -125.5q0 -74 -53.5 -126t-125 -52t-125 52t-53.5 126z" />
<glyph unicode="&#xb8;" horiz-adv-x="454" d="M23 -358q0 25 16 47t39 22q20 0 57 -15t58 -15q29 0 49 18t20 47t-19.5 43t-43.5 14h-41q-18 0 -32.5 14.5t-14.5 32.5q0 33 55 99l43 51h141l-80 -106q16 2 49 2q72 0 118 -44.5t46 -119.5q0 -88 -82 -137.5t-174 -49.5q-205 0 -204 97z" />
<glyph unicode="&#xb9;" horiz-adv-x="516" d="M-23 1380q0 41 26 70t73 29h188q49 0 83 -28t34 -85v-666q0 -49 -32 -82.5t-85 -33.5q-55 0 -86 33.5t-31 82.5v582h-71q-47 0 -73 28.5t-26 69.5z" />
<glyph unicode="&#xba;" horiz-adv-x="737" d="M12 1149q0 145 98.5 243.5t258.5 98.5q158 0 257 -98.5t99 -243.5q0 -147 -100.5 -247.5t-255.5 -100.5q-160 0 -258.5 99t-98.5 249zM233 1144.5q0 -59.5 37 -103.5t98.5 -44t98.5 44t37 103.5t-37 104.5t-98.5 45t-98.5 -45t-37 -104.5z" />
<glyph unicode="&#xbb;" horiz-adv-x="1214" d="M123 344q0 72 55 109l182 118l-182 121q-55 35 -55 107q0 45 28.5 76.5t75.5 31.5q46 0 105 -43l172 -125q82 -57 82 -168q0 -106 -82 -168l-172 -124q-59 -43 -105 -43q-47 0 -75.5 31.5t-28.5 76.5zM629 344q0 72 55 109l182 118l-182 121q-55 35 -55 107 q0 45 28.5 76.5t75.5 31.5q46 0 105 -43l172 -125q82 -57 82 -168q0 -106 -82 -168l-172 -124q-59 -43 -105 -43q-47 0 -75.5 31.5t-28.5 76.5z" />
<glyph unicode="&#xbc;" horiz-adv-x="1935" d="M59 1380q0 41 26 70t73 29h188q49 0 83 -28t34 -85v-666q0 -49 -32 -82.5t-85 -33.5q-55 0 -86 33.5t-31 82.5v582h-71q-47 0 -73 28.5t-26 69.5zM375 82q0 45 63 151l662 1149q31 55 58.5 82t68.5 27q51 0 86 -34t35 -81q0 -45 -64 -151l-661 -1149q-31 -55 -58.5 -82 t-68.5 -27q-51 0 -86 34t-35 81zM1026 256q0 39 41 102l317 455q29 47 66 63.5t98 16.5q82 0 128 -41t46 -109v-374h58q47 0 71.5 -27t24.5 -72t-24.5 -71.5t-71.5 -26.5h-58v-88q0 -45 -30.5 -70.5t-87.5 -25.5q-55 0 -85 26.5t-30 69.5v88h-354q-55 0 -82 24.5t-27 59.5z M1311 369h178v260h-4z" />
<glyph unicode="&#xbd;" horiz-adv-x="1935" d="M86 1380q0 41 25.5 70t72.5 29h189q49 0 82.5 -28t33.5 -85v-666q0 -49 -31.5 -82.5t-84.5 -33.5q-55 0 -86 33.5t-31 82.5v582h-72q-47 0 -72.5 28.5t-25.5 69.5zM399 82q1 45 64 151l661 1149q31 55 58.5 82t68.5 27q51 0 86 -34t35 -81q0 -45 -63 -151l-662 -1149 q-31 -55 -58.5 -82t-68.5 -27q-51 0 -86 34t-35 81zM1176 86q0 41 66.5 112.5t144 137t143 143.5t65.5 133q0 35 -28.5 54.5t-61.5 19.5q-45 0 -68.5 -26.5t-29.5 -57.5t-32.5 -57.5t-74.5 -26.5q-53 0 -80.5 28.5t-27.5 65.5q0 117 92 200t236 83q131 0 220 -73.5 t89 -192.5q0 -61 -36 -129t-70.5 -107t-106.5 -107.5t-90 -88.5h225q47 0 72.5 -29t25.5 -70t-25.5 -69.5t-72.5 -28.5h-451q-49 0 -86.5 24.5t-37.5 61.5z" />
<glyph unicode="&#xbe;" horiz-adv-x="1935" d="M59 819q0 41 28 67.5t73 26.5q37 0 64.5 -18t42 -42t47 -42t83.5 -18q41 0 72 28.5t31 63.5q0 47 -34 66.5t-76 19.5t-76.5 20.5t-34.5 67.5q0 43 29.5 65.5t64.5 25.5t64.5 21.5t29.5 57.5q0 53 -84 53q-51 0 -103.5 -44t-101.5 -44q-39 0 -63.5 28.5t-24.5 63.5 q0 94 96.5 149.5t210.5 55.5q119 0 205 -65.5t86 -174t-115 -174.5q78 -31 119 -90t41 -133q0 -121 -96 -195.5t-242 -74.5q-129 0 -232.5 70.5t-103.5 164.5zM485 82q1 45 64 151l661 1149q31 55 58.5 82t68.5 27q51 0 86 -34t35 -81q0 -45 -63 -151l-662 -1149 q-31 -55 -58.5 -82t-68.5 -27q-51 0 -86 34t-35 81zM1026 256q0 39 41 102l317 455q49 70 164 70q82 0 128 -41t46 -109v-364h58q47 0 71.5 -27t24.5 -72t-24.5 -71.5t-71.5 -26.5h-58v-88q0 -45 -30.5 -70.5t-87.5 -25.5q-55 0 -85 26.5t-30 69.5v88h-354q-55 0 -82 24.5 t-27 59.5zM1311 369h178v260h-4z" />
<glyph unicode="&#xbf;" horiz-adv-x="1024" d="M33 53q0 352 354 424v41q0 72 44 116t115.5 44t116 -44t44.5 -116v-164q0 -39 -11.5 -64.5t-40 -39.5t-47 -18.5t-63.5 -12.5q-156 -31 -156 -156q0 -51 41 -92t109 -41q51 0 87 19.5t57.5 46.5t43 53.5t54 46t77.5 19.5q61 0 104.5 -46t43.5 -108q0 -162 -148.5 -262 t-318.5 -100q-211 0 -358.5 123.5t-147.5 330.5zM369 944q0 74 53 126t124.5 52t125 -52t53.5 -126q0 -72 -53.5 -125t-125 -53t-124.5 53t-53 125z" />
<glyph unicode="&#xc0;" horiz-adv-x="1290" d="M-2 123q0 72 49 205l320 862q29 80 46 119t50 89t77 71.5t103 21.5q61 0 105.5 -21.5t78 -71.5t51 -89t46.5 -119l319 -862q49 -133 49 -205q0 -61 -44 -98t-115 -37q-74 0 -111 40t-64 122l-40 131h-545l-41 -131q-27 -82 -64 -122t-110 -40q-72 0 -116 36.5t-44 98.5z M279 1819q0 59 36.5 100t96.5 41q43 0 84 -18l307 -134q76 -29 76 -112q0 -59 -37 -100.5t-97 -41.5q-43 0 -83 19l-308 133q-76 29 -75 113zM471 588h348l-166 534h-4z" />
<glyph unicode="&#xc1;" horiz-adv-x="1290" d="M-2 123q0 72 49 205l320 862q29 80 46 119t50 89t77 71.5t103 21.5q61 0 105.5 -21.5t78 -71.5t51 -89t46.5 -119l319 -862q49 -133 49 -205q0 -61 -44 -98t-115 -37q-74 0 -111 40t-64 122l-40 131h-545l-41 -131q-27 -82 -64 -122t-110 -40q-72 0 -116 36.5t-44 98.5z M412 1696q0 84 75 112l308 134q41 18 84 18q59 0 96 -41t37 -100q0 -84 -76 -113l-307 -133q-41 -18 -84 -19q-59 0 -96 41t-37 101zM471 588h348l-166 534h-4z" />
<glyph unicode="&#xc2;" horiz-adv-x="1290" d="M-2 123q0 72 49 205l320 862q29 80 46 119t50 89t77 71.5t103 21.5q61 0 105.5 -21.5t78 -71.5t51 -89t46.5 -119l319 -862q49 -133 49 -205q0 -61 -44 -98t-115 -37q-74 0 -111 40t-64 122l-40 131h-545l-41 -131q-27 -82 -64 -122t-110 -40q-72 0 -116 36.5t-44 98.5z M229 1677q0 63 23.5 95t85.5 61l180 82q102 45 127 45t127 -45l180 -82q61 -29 85 -60.5t24 -95.5q0 -51 -33 -87t-76 -36q-41 0 -110 31l-197 90l-196 -90q-70 -31 -111 -31q-43 0 -76 36t-33 87zM471 588h348l-166 534h-4z" />
<glyph unicode="&#xc3;" horiz-adv-x="1290" d="M-2 123q0 72 49 205l320 862q29 80 46 119t50 89t77 71.5t103 21.5q61 0 105.5 -21.5t78 -71.5t51 -89t46.5 -119l319 -862q49 -133 49 -205q0 -61 -44 -98t-115 -37q-74 0 -111 40t-64 122l-40 131h-545l-41 -131q-27 -82 -64 -122t-110 -40q-72 0 -116 36.5t-44 98.5z M209 1686q0 84 62.5 153.5t144.5 69.5q86 0 209 -48.5t157 -48.5q41 0 91.5 48.5t89.5 48.5q55 0 86.5 -38t31.5 -93q0 -84 -62.5 -154t-144.5 -70q-86 0 -208.5 48.5t-157.5 48.5q-41 0 -91 -48.5t-89 -48.5q-55 0 -87 38.5t-32 93.5zM471 588h348l-166 534h-4z" />
<glyph unicode="&#xc4;" horiz-adv-x="1290" d="M-2 123q0 72 49 205l320 862q29 80 46 119t50 89t77 71.5t103 21.5q61 0 105.5 -21.5t78 -71.5t51 -89t46.5 -119l319 -862q49 -133 49 -205q0 -61 -44 -98t-115 -37q-74 0 -111 40t-64 122l-40 131h-545l-41 -131q-27 -82 -64 -122t-110 -40q-72 0 -116 36.5t-44 98.5z M248 1757.5q0 65.5 47 112.5t112.5 47t112.5 -47t47 -112.5t-47 -113t-112.5 -47.5t-112.5 47.5t-47 113zM471 588h348l-166 534h-4zM723 1757.5q0 65.5 47 112.5t112.5 47t112.5 -47t47 -112.5t-47 -113t-112.5 -47.5t-112.5 47.5t-47 113z" />
<glyph unicode="&#xc5;" horiz-adv-x="1290" d="M-2 123q0 72 49 205l320 862q29 80 46 119t50 89t77 71.5t103 21.5q61 0 105.5 -21.5t78 -71.5t51 -89t46.5 -119l319 -862q49 -133 49 -205q0 -61 -44 -98t-115 -37q-74 0 -111 40t-64 122l-40 131h-545l-41 -131q-27 -82 -64 -122t-110 -40q-72 0 -116 36.5t-44 98.5z M442 1735q0 84 59.5 143t143.5 59t143.5 -59t59.5 -143t-59.5 -143.5t-143.5 -59.5t-143.5 59.5t-59.5 143.5zM471 588h348l-166 534h-4zM553 1735q0 -37 27.5 -65t64.5 -28t64.5 28t27.5 65t-27.5 64.5t-64.5 27.5t-64.5 -27.5t-27.5 -64.5z" />
<glyph unicode="&#xc6;" horiz-adv-x="1744" d="M-2 150q0 71 45 147l596 1014q55 96 109.5 121.5t173.5 25.5h626q78 0 122 -42t44 -111q0 -72 -44 -113t-122 -41h-342v-264h314q78 0 122 -41t44 -112.5t-44.5 -112.5t-121.5 -41h-314v-273h357q78 0 122 -41t44 -112q0 -70 -44.5 -112t-121.5 -42h-523q-68 0 -117 45 t-49 121v115h-464l-64 -127q-31 -63 -48 -91t-57 -51.5t-98 -23.5q-63 0 -104 44t-41 118zM575 588h299v559h-4z" />
<glyph unicode="&#xc7;" horiz-adv-x="1214" d="M43 729q0 336 198.5 549t524.5 213q176 0 308 -56.5t132 -174.5q0 -63 -41 -110.5t-102 -47.5q-33 0 -125 34.5t-164 34.5q-188 0 -281.5 -128t-93.5 -314q0 -182 91.5 -306t254.5 -124q119 0 208 34t118 34q59 0 95 -32t44.5 -61.5t8.5 -60.5q0 -66 -45.5 -115 t-117 -76.5t-147 -41t-149.5 -13.5q-21 0 -29 2l-55 -75q16 2 49 2q72 0 118 -44.5t46 -119.5q0 -88 -82 -137.5t-174 -49.5q-205 0 -205 97q0 25 16.5 47t38.5 22q20 0 57.5 -15t57.5 -15q29 0 49.5 18t20.5 47t-19.5 43t-44.5 14h-41q-18 0 -32.5 14.5t-14.5 32.5 q0 33 55 99l27 35q-260 49 -407.5 255.5t-147.5 489.5z" />
<glyph unicode="&#xc8;" horiz-adv-x="948" d="M80 166v1126q0 76 49 121t117 45h508q78 0 122 -42t44 -111q0 -72 -44.5 -113t-121.5 -41h-342v-264h313q78 0 122 -41t44 -112.5t-44 -112.5t-122 -41h-313v-273h354q78 0 122 -41t44 -112q0 -70 -44 -112t-122 -42h-520q-68 0 -117 45t-49 121zM109 1819q0 59 36.5 100 t96.5 41q43 0 84 -18l307 -134q76 -29 76 -112q0 -59 -37 -100.5t-97 -41.5q-43 0 -83 19l-308 133q-76 29 -75 113z" />
<glyph unicode="&#xc9;" horiz-adv-x="948" d="M80 166v1126q0 76 49 121t117 45h508q78 0 122 -42t44 -111q0 -72 -44.5 -113t-121.5 -41h-342v-264h313q78 0 122 -41t44 -112.5t-44 -112.5t-122 -41h-313v-273h354q78 0 122 -41t44 -112q0 -70 -44 -112t-122 -42h-520q-68 0 -117 45t-49 121zM242 1696q0 84 75 112 l308 134q41 18 84 18q59 0 96 -41t37 -100q0 -84 -76 -113l-307 -133q-41 -18 -84 -19q-59 0 -96 41t-37 101z" />
<glyph unicode="&#xca;" horiz-adv-x="948" d="M59 1677q0 63 23.5 95t85.5 61l180 82q102 45 127 45t127 -45l180 -82q61 -29 85 -60.5t24 -95.5q0 -51 -33 -87t-76 -36q-41 0 -110 31l-197 90l-196 -90q-70 -31 -111 -31q-43 0 -76 36t-33 87zM80 166v1126q0 76 49 121t117 45h508q78 0 122 -42t44 -111 q0 -72 -44.5 -113t-121.5 -41h-342v-264h313q78 0 122 -41t44 -112.5t-44 -112.5t-122 -41h-313v-273h354q78 0 122 -41t44 -112q0 -70 -44 -112t-122 -42h-520q-68 0 -117 45t-49 121z" />
<glyph unicode="&#xcb;" horiz-adv-x="948" d="M78 1757.5q0 65.5 47 112.5t112.5 47t112.5 -47t47 -112.5t-47 -113t-112.5 -47.5t-112.5 47.5t-47 113zM80 166v1126q0 76 49 121t117 45h508q78 0 122 -42t44 -111q0 -72 -44.5 -113t-121.5 -41h-342v-264h313q78 0 122 -41t44 -112.5t-44 -112.5t-122 -41h-313v-273 h354q78 0 122 -41t44 -112q0 -70 -44 -112t-122 -42h-520q-68 0 -117 45t-49 121zM553 1757.5q0 65.5 47 112.5t112.5 47t112.5 -47t47 -112.5t-47 -113t-112.5 -47.5t-112.5 47.5t-47 113z" />
<glyph unicode="&#xcc;" horiz-adv-x="491" d="M-121 1819q0 59 37 100t96 41q43 0 84 -18l307 -134q76 -29 76 -112q0 -59 -36.5 -100.5t-96.5 -41.5q-43 0 -84 19l-307 133q-76 29 -76 113zM80 164v1130q0 86 46 131t119.5 45t120 -45t46.5 -131v-1130q0 -86 -46.5 -131t-120 -45t-119.5 45t-46 131z" />
<glyph unicode="&#xcd;" horiz-adv-x="491" d="M12 1696q0 84 76 112l307 134q41 18 84 18q59 0 96 -41t37 -100q1 -84 -75 -113l-308 -133q-41 -18 -84 -19q-59 0 -96 41t-37 101zM80 164v1130q0 86 46 131t119.5 45t120 -45t46.5 -131v-1130q0 -86 -46.5 -131t-120 -45t-119.5 45t-46 131z" />
<glyph unicode="&#xce;" horiz-adv-x="491" d="M-170 1677q0 63 23.5 95t85.5 61l180 82q102 45 126.5 45t127.5 -45l180 -82q61 -29 85 -60.5t24 -95.5q0 -51 -33 -87t-76 -36q-41 0 -111 31l-196 90l-197 -90q-70 -31 -110 -31q-43 0 -76 36t-33 87zM80 164v1130q0 86 46 131t119.5 45t120 -45t46.5 -131v-1130 q0 -86 -46.5 -131t-120 -45t-119.5 45t-46 131z" />
<glyph unicode="&#xcf;" horiz-adv-x="491" d="M-152 1757.5q0 65.5 47.5 112.5t113 47t112.5 -47t47 -112.5t-47 -113t-112.5 -47.5t-113 47.5t-47.5 113zM80 164v1130q0 86 46 131t119.5 45t120 -45t46.5 -131v-1130q0 -86 -46.5 -131t-120 -45t-119.5 45t-46 131zM324 1757.5q0 65.5 47 112.5t112.5 47t112.5 -47 t47 -112.5t-47 -113t-112.5 -47.5t-112.5 47.5t-47 113z" />
<glyph unicode="&#xd0;" horiz-adv-x="1366" d="M-104 739.5q0 59.5 34.5 94t94.5 34.5h55v424q0 76 49 121t117 45h397q311 0 495.5 -211t184.5 -508q0 -344 -197.5 -541.5t-482.5 -197.5h-397q-68 0 -117 45t-49 121v444h-55q-59 0 -94 35t-35 94.5zM412 307h176q186 0 282.5 117t96.5 315q0 188 -94.5 300t-270.5 112 h-190v-283h168q61 0 95 -34.5t34 -94t-34 -94.5t-95 -35h-168v-303z" />
<glyph unicode="&#xd1;" horiz-adv-x="1441" d="M80 164v1130q0 86 46 131t120 45q61 0 100 -31.5t129 -146.5l551 -690h4v692q0 86 46 131t120 45t120 -45t46 -131v-1130q0 -86 -46 -131t-120 -45q-63 0 -102 32.5t-127 145.5l-551 690h-4v-692q0 -86 -46.5 -131t-120 -45t-119.5 45t-46 131zM285 1686q0 84 62.5 153.5 t144.5 69.5q86 0 208.5 -48.5t157.5 -48.5q41 0 91 48.5t89 48.5q55 0 87 -38t32 -93q0 -84 -62.5 -154t-144.5 -70q-86 0 -209 48.5t-157 48.5q-41 0 -91.5 -48.5t-89.5 -48.5q-55 0 -86.5 38.5t-31.5 93.5z" />
<glyph unicode="&#xd2;" horiz-adv-x="1519" d="M43 729q0 346 195.5 554t521 208t521.5 -208t196 -554t-196 -554t-521.5 -208t-521 208t-195.5 554zM393 1819q0 59 37 100t96 41q43 0 84 -18l308 -134q76 -29 75 -112q0 -59 -36.5 -100.5t-96.5 -41.5q-43 0 -84 19l-307 133q-76 29 -76 113zM399 729.5 q0 -190.5 90.5 -323t270.5 -132.5t270 132.5t90 323t-90 322.5t-270 132t-270.5 -132t-90.5 -322.5z" />
<glyph unicode="&#xd3;" horiz-adv-x="1519" d="M43 729q0 346 195.5 554t521 208t521.5 -208t196 -554t-196 -554t-521.5 -208t-521 208t-195.5 554zM399 729.5q0 -190.5 90.5 -323t270.5 -132.5t270 132.5t90 323t-90 322.5t-270 132t-270.5 -132t-90.5 -322.5zM526 1696q0 84 76 112l307 134q41 18 84 18q59 0 96 -41 t37 -100q1 -84 -75 -113l-308 -133q-41 -18 -84 -19q-59 0 -96 41t-37 101z" />
<glyph unicode="&#xd4;" horiz-adv-x="1519" d="M43 729q0 346 195.5 554t521 208t521.5 -208t196 -554t-196 -554t-521.5 -208t-521 208t-195.5 554zM344 1677q0 63 23.5 95t85.5 61l180 82q102 45 126.5 45t127.5 -45l180 -82q61 -29 85 -60.5t24 -95.5q0 -51 -33 -87t-76 -36q-41 0 -111 31l-196 90l-197 -90 q-70 -31 -110 -31q-43 0 -76 36t-33 87zM399 729.5q0 -190.5 90.5 -323t270.5 -132.5t270 132.5t90 323t-90 322.5t-270 132t-270.5 -132t-90.5 -322.5z" />
<glyph unicode="&#xd5;" horiz-adv-x="1519" d="M43 729q0 346 195.5 554t521 208t521.5 -208t196 -554t-196 -554t-521.5 -208t-521 208t-195.5 554zM324 1686q0 84 62.5 153.5t143.5 69.5q86 0 209 -48.5t158 -48.5q41 0 91 48.5t89 48.5q55 0 87 -38t32 -93q0 -84 -62.5 -154t-144.5 -70q-86 0 -209 48.5t-157 48.5 q-41 0 -91.5 -48.5t-89.5 -48.5q-55 0 -86.5 38.5t-31.5 93.5zM399 729.5q0 -190.5 90.5 -323t270.5 -132.5t270 132.5t90 323t-90 322.5t-270 132t-270.5 -132t-90.5 -322.5z" />
<glyph unicode="&#xd6;" horiz-adv-x="1519" d="M43 729q0 346 195.5 554t521 208t521.5 -208t196 -554t-196 -554t-521.5 -208t-521 208t-195.5 554zM362 1757.5q0 65.5 47.5 112.5t113 47t112.5 -47t47 -112.5t-47 -113t-112.5 -47.5t-113 47.5t-47.5 113zM399 729.5q0 -190.5 90.5 -323t270.5 -132.5t270 132.5 t90 323t-90 322.5t-270 132t-270.5 -132t-90.5 -322.5zM838 1757.5q0 65.5 47 112.5t112.5 47t112.5 -47t47 -112.5t-47 -113t-112.5 -47.5t-112.5 47.5t-47 113z" />
<glyph unicode="&#xd7;" horiz-adv-x="1228" d="M109 213q0 47 36 84l283 283l-283 280q-37 37 -36 78q0 51 47 98q49 49 94 49q41 0 82 -41l282 -280l283 280q41 41 84 41q37 0 92 -49q47 -43 47 -100q0 -37 -39 -76l-282 -280l282 -283q39 -39 39 -82q0 -47 -47 -94t-98 -47q-39 0 -78 39l-283 282l-282 -282 q-39 -39 -78 -39q-47 0 -98 47q-49 49 -47 92z" />
<glyph unicode="&#xd8;" horiz-adv-x="1519" d="M12 0q0 49 49 102l125 138q-143 197 -143 489q0 346 195.5 554t521.5 208q260 0 438 -135l127 141q45 51 86 51t68.5 -23.5t27.5 -60.5q0 -49 -49 -102l-127 -139q145 -201 146 -494q0 -346 -196 -554t-521 -208q-262 0 -441 137l-124 -137q-45 -51 -86 -51t-69 23.5 t-28 60.5zM399 729q0 -121 37 -215l539 596q-86 74 -215 74q-180 0 -270.5 -132t-90.5 -323zM543 350q86 -76 217 -76q180 0 270 132.5t90 322.5q0 121 -37 219z" />
<glyph unicode="&#xd9;" horiz-adv-x="1402" d="M70 586v708q0 86 45 131t120.5 45t120.5 -45t45 -131v-708q0 -141 85 -220t214 -79t215 78.5t86 220.5v708q0 86 46.5 131t120 45t119.5 -45t46 -131v-708q0 -285 -176 -452t-456.5 -167t-455.5 167t-175 452zM336 1819q0 59 37 100t96 41q43 0 84 -18l307 -134 q76 -29 76 -112q0 -59 -37 -100.5t-96 -41.5q-43 0 -84 19l-307 133q-76 29 -76 113z" />
<glyph unicode="&#xda;" horiz-adv-x="1402" d="M70 586v708q0 86 45 131t120.5 45t120.5 -45t45 -131v-708q0 -141 85 -220t214 -79t215 78.5t86 220.5v708q0 86 46.5 131t120 45t119.5 -45t46 -131v-708q0 -285 -176 -452t-456.5 -167t-455.5 167t-175 452zM469 1696q0 84 76 112l307 134q41 18 84 18q59 0 96 -41 t37 -100q0 -84 -76 -113l-307 -133q-41 -18 -84 -19q-59 0 -96 41t-37 101z" />
<glyph unicode="&#xdb;" horiz-adv-x="1402" d="M70 586v708q0 86 45 131t120.5 45t120.5 -45t45 -131v-708q0 -141 85 -220t214 -79t215 78.5t86 220.5v708q0 86 46.5 131t120 45t119.5 -45t46 -131v-708q0 -285 -176 -452t-456.5 -167t-455.5 167t-175 452zM287 1677q0 63 23.5 95t84.5 61l180 82q102 45 127 45 t127 -45l181 -82q61 -29 84.5 -60.5t23.5 -95.5q0 -51 -32.5 -87t-75.5 -36q-41 0 -111 31l-197 90l-196 -90q-70 -31 -111 -31q-43 0 -75.5 36t-32.5 87z" />
<glyph unicode="&#xdc;" horiz-adv-x="1402" d="M70 586v708q0 86 45 131t120.5 45t120.5 -45t45 -131v-708q0 -141 85 -220t214 -79t215 78.5t86 220.5v708q0 86 46.5 131t120 45t119.5 -45t46 -131v-708q0 -285 -176 -452t-456.5 -167t-455.5 167t-175 452zM305 1757.5q0 65.5 47 112.5t112.5 47t113 -47t47.5 -112.5 t-47.5 -113t-113 -47.5t-112.5 47.5t-47 113zM780 1757.5q0 65.5 47 112.5t113 47t113 -47t47 -112.5t-47 -113t-113 -47.5t-113 47.5t-47 113z" />
<glyph unicode="&#xdd;" horiz-adv-x="1101" d="M-39 1323q0 66 50 106.5t126 40.5q41 0 77 -20t51.5 -38.5t39.5 -53.5l246 -350l246 350q25 35 40 53.5t51 38.5t77 20q76 0 126 -40.5t50 -106.5q0 -47 -23.5 -88t-113.5 -166l-287 -385v-520q0 -86 -45 -131t-121 -45t-121 45t-45 131v520l-287 385q-113 158 -127 197 q-10 27 -10 57zM317 1696q0 84 76 112l307 134q41 18 84 18q59 0 96.5 -41t37.5 -100q0 -84 -76 -113l-307 -133q-41 -18 -84 -19q-59 0 -96.5 41t-37.5 101z" />
<glyph unicode="&#xde;" horiz-adv-x="1175" d="M80 164v1130q0 88 45 132t121 44t121 -44t45 -132v-53h241q207 0 353.5 -130t146.5 -363q0 -219 -130 -356.5t-359 -137.5h-252v-90q0 -88 -45 -132t-121 -44t-121 44t-45 132zM412 549h178q100 0 159.5 58.5t59.5 140.5q0 96 -59.5 147t-159.5 51h-178v-397z" />
<glyph unicode="&#xdf;" horiz-adv-x="1175" d="M74 154v938q0 215 138 350t347 135t337 -122t128 -316q0 -80 -35 -153t-96 -116q121 -45 182.5 -151.5t61.5 -243.5q0 -215 -145.5 -361.5t-332.5 -146.5q-82 0 -132 40t-50 112q0 133 164 157q70 10 117 74t47 135q0 172 -168 203q-92 16 -133 50t-41 110q0 57 24.5 88 t60.5 43t71.5 23.5t60.5 43t25 89.5q0 59 -39 97t-103 38q-170 0 -170 -242v-874q0 -70 -45 -118t-114.5 -48t-114.5 48t-45 118z" />
<glyph unicode="&#xe0;" horiz-adv-x="1175" d="M31 544.5q0 241.5 142 409.5t351 168q174 0 275 -123q47 102 149 103q70 0 115 -48t45 -118v-782q0 -70 -45 -118t-115 -48q-102 0 -149 102q-100 -123 -275 -123q-209 0 -351 168t-142 409.5zM221 1479q0 59 37 100t96 41q43 0 84 -18l307 -134q76 -29 76 -112 q0 -59 -36.5 -100.5t-96.5 -41.5q-43 0 -84 19l-307 133q-76 29 -76 113zM350 544.5q0 -114.5 58.5 -192.5t161 -78t160.5 78t58 192.5t-58 192.5t-160.5 78t-161 -78t-58.5 -192.5z" />
<glyph unicode="&#xe1;" horiz-adv-x="1175" d="M31 544.5q0 241.5 142 409.5t351 168q174 0 275 -123q47 102 149 103q70 0 115 -48t45 -118v-782q0 -70 -45 -118t-115 -48q-102 0 -149 102q-100 -123 -275 -123q-209 0 -351 168t-142 409.5zM350 544.5q0 -114.5 58.5 -192.5t161 -78t160.5 78t58 192.5t-58 192.5 t-160.5 78t-161 -78t-58.5 -192.5zM354 1356q0 84 76 112l307 134q41 18 84 18q59 0 96 -41t37 -100q1 -84 -75 -113l-308 -133q-41 -18 -84 -19q-59 0 -96 41t-37 101z" />
<glyph unicode="&#xe2;" horiz-adv-x="1175" d="M31 544.5q0 241.5 142 409.5t351 168q174 0 275 -123q47 102 149 103q70 0 115 -48t45 -118v-782q0 -70 -45 -118t-115 -48q-102 0 -149 102q-100 -123 -275 -123q-209 0 -351 168t-142 409.5zM172 1337q0 63 23.5 95t85.5 61l180 82q102 45 126.5 45t127.5 -45l180 -82 q61 -29 85 -60.5t24 -95.5q0 -51 -33 -87t-76 -36q-41 0 -111 31l-196 90l-197 -90q-70 -31 -110 -31q-43 0 -76 36t-33 87zM350 544.5q0 -114.5 58.5 -192.5t161 -78t160.5 78t58 192.5t-58 192.5t-160.5 78t-161 -78t-58.5 -192.5z" />
<glyph unicode="&#xe3;" horiz-adv-x="1175" d="M31 544.5q0 241.5 142 409.5t351 168q174 0 275 -123q47 102 149 103q70 0 115 -48t45 -118v-782q0 -70 -45 -118t-115 -48q-102 0 -149 102q-100 -123 -275 -123q-209 0 -351 168t-142 409.5zM152 1346q0 84 62 153.5t144 69.5q86 0 209 -48t158 -48q41 0 91 48t89 48 q55 0 87 -38t32 -93q0 -84 -62.5 -154t-144.5 -70q-86 0 -209 48.5t-157 48.5q-41 0 -91.5 -48.5t-89.5 -48.5q-55 0 -86.5 38.5t-31.5 93.5zM350 544.5q0 -114.5 58.5 -192.5t161 -78t160.5 78t58 192.5t-58 192.5t-160.5 78t-161 -78t-58.5 -192.5z" />
<glyph unicode="&#xe4;" horiz-adv-x="1175" d="M31 544.5q0 241.5 142 409.5t351 168q174 0 275 -123q47 102 149 103q70 0 115 -48t45 -118v-782q0 -70 -45 -118t-115 -48q-102 0 -149 102q-100 -123 -275 -123q-209 0 -351 168t-142 409.5zM190 1417.5q0 65.5 47.5 112.5t113 47t112.5 -47t47 -112.5t-47 -113 t-112.5 -47.5t-113 47.5t-47.5 113zM350 544.5q0 -114.5 58.5 -192.5t161 -78t160.5 78t58 192.5t-58 192.5t-160.5 78t-161 -78t-58.5 -192.5zM666 1417.5q0 65.5 47 112.5t112.5 47t112.5 -47t47 -112.5t-47 -113t-112.5 -47.5t-112.5 47.5t-47 113z" />
<glyph unicode="&#xe5;" horiz-adv-x="1175" d="M31 544.5q0 241.5 142 409.5t351 168q174 0 275 -123q47 102 149 103q70 0 115 -48t45 -118v-782q0 -70 -45 -118t-115 -48q-102 0 -149 102q-100 -123 -275 -123q-209 0 -351 168t-142 409.5zM350 544.5q0 -114.5 58.5 -192.5t161 -78t160.5 78t58 192.5t-58 192.5 t-160.5 78t-161 -78t-58.5 -192.5zM385 1366q0 84 59.5 143.5t143.5 59.5t143.5 -59.5t59.5 -143.5t-59.5 -143.5t-143.5 -59.5t-143.5 59.5t-59.5 143.5zM496 1366q0 -37 27.5 -64.5t64.5 -27.5t64.5 27.5t27.5 64.5t-27.5 64.5t-64.5 27.5t-64.5 -27.5t-27.5 -64.5z" />
<glyph unicode="&#xe6;" horiz-adv-x="1896" d="M31 544.5q0 241.5 142 409.5t351 168q176 0 271 -123h4q0 123 137 123q84 0 119 -73q100 74 293 73q227 0 372.5 -161.5t145.5 -380.5q0 -80 -37 -110t-119 -30h-602q0 -63 70.5 -120.5t210.5 -57.5q90 0 195.5 50t131.5 50q55 0 94 -38.5t39 -98.5q0 -111 -154.5 -184.5 t-346.5 -73.5q-188 0 -297 74q-39 -74 -119 -74q-133 0 -133 123h-4q-94 -123 -271 -123q-209 0 -351 168t-142 409.5zM350 544.5q0 -114.5 58.5 -192.5t161 -78t160.5 78t58 192.5t-58 192.5t-160.5 78t-161 -78t-58.5 -192.5zM1108 659h438q0 63 -62.5 128t-156.5 65 t-156.5 -65t-62.5 -128z" />
<glyph unicode="&#xe7;" horiz-adv-x="948" d="M31 545q0 246 150.5 411.5t387.5 165.5q61 0 121 -9t121 -31.5t99 -66.5t38 -104q0 -63 -38 -106t-93 -43q-35 0 -98.5 26.5t-130.5 26.5q-117 0 -177.5 -76.5t-60.5 -193.5q0 -115 58.5 -193t160.5 -78q80 0 158 28t90 28q53 0 92 -44t39 -98q0 -74 -69.5 -126 t-150.5 -72.5t-155 -22.5l-55 -73q16 2 49 2q72 0 118 -44.5t46 -119.5q0 -88 -82 -137.5t-174 -49.5q-205 0 -205 97q0 25 16.5 47t39 22t57.5 -15t57 -15q29 0 49.5 18t20.5 47t-19.5 43t-44.5 14h-40q-18 0 -33 14.5t-15 32.5q0 33 56 99l26 33q-186 45 -297.5 199.5 t-111.5 363.5z" />
<glyph unicode="&#xe8;" d="M31 545q0 236 159.5 406.5t399.5 170.5q227 0 372.5 -161.5t145.5 -380.5q0 -80 -37 -110t-119 -30h-577q0 -66 59.5 -122t196.5 -56q90 0 195.5 50t131.5 50q55 0 94.5 -38.5t39.5 -98.5q0 -111 -155 -184.5t-347 -73.5q-252 0 -405.5 165t-153.5 413zM203 1479 q0 59 36.5 100t96.5 41q43 0 84 -18l307 -134q76 -29 76 -112q0 -59 -37 -100.5t-96 -41.5q-43 0 -84 19l-307 133q-76 29 -76 113zM375 659h413q0 61 -60 127t-146 66t-146.5 -66t-60.5 -127z" />
<glyph unicode="&#xe9;" d="M31 545q0 236 159.5 406.5t399.5 170.5q227 0 372.5 -161.5t145.5 -380.5q0 -80 -37 -110t-119 -30h-577q0 -66 59.5 -122t196.5 -56q90 0 195.5 50t131.5 50q55 0 94.5 -38.5t39.5 -98.5q0 -111 -155 -184.5t-347 -73.5q-252 0 -405.5 165t-153.5 413zM336 1356 q0 84 76 112l307 134q41 18 84 18q59 0 96 -41t37 -100q0 -84 -76 -113l-307 -133q-41 -18 -84 -19q-59 0 -96 41t-37 101zM375 659h413q0 61 -60 127t-146 66t-146.5 -66t-60.5 -127z" />
<glyph unicode="&#xea;" d="M31 545q0 236 159.5 406.5t399.5 170.5q227 0 372.5 -161.5t145.5 -380.5q0 -80 -37 -110t-119 -30h-577q0 -66 59.5 -122t196.5 -56q90 0 195.5 50t131.5 50q55 0 94.5 -38.5t39.5 -98.5q0 -111 -155 -184.5t-347 -73.5q-252 0 -405.5 165t-153.5 413zM154 1337 q0 63 23.5 95t84.5 61l180 82q102 45 127 45t127 -45l181 -82q61 -29 84.5 -60.5t23.5 -95.5q0 -51 -32.5 -87t-75.5 -36q-41 0 -111 31l-197 90l-196 -90q-70 -31 -111 -31q-43 0 -75.5 36t-32.5 87zM375 659h413q0 61 -60 127t-146 66t-146.5 -66t-60.5 -127z" />
<glyph unicode="&#xeb;" d="M31 545q0 236 159.5 406.5t399.5 170.5q227 0 372.5 -161.5t145.5 -380.5q0 -80 -37 -110t-119 -30h-577q0 -66 59.5 -122t196.5 -56q90 0 195.5 50t131.5 50q55 0 94.5 -38.5t39.5 -98.5q0 -111 -155 -184.5t-347 -73.5q-252 0 -405.5 165t-153.5 413zM172 1417.5 q0 65.5 47 112.5t112.5 47t113 -47t47.5 -112.5t-47.5 -113t-113 -47.5t-112.5 47.5t-47 113zM375 659h413q0 61 -60 127t-146 66t-146.5 -66t-60.5 -127zM647 1417.5q0 65.5 47 112.5t112.5 47t113 -47t47.5 -112.5t-47.5 -113t-113 -47.5t-112.5 47.5t-47 113z" />
<glyph unicode="&#xec;" horiz-adv-x="454" d="M-139 1479q0 59 36.5 100t96.5 41q43 0 84 -18l307 -134q76 -29 76 -112q0 -59 -37 -100.5t-96 -41.5q-43 0 -84 19l-307 133q-76 29 -76 113zM68 154v782q0 70 45 118t114.5 48t114.5 -48t45 -118v-782q0 -70 -45 -118t-114.5 -48t-114.5 48t-45 118z" />
<glyph unicode="&#xed;" horiz-adv-x="454" d="M-6 1356q0 84 76 112l307 134q41 18 84 18q59 0 96 -41t37 -100q0 -84 -76 -113l-307 -133q-41 -18 -84 -19q-59 0 -96 41t-37 101zM68 154v782q0 70 45 118t114.5 48t114.5 -48t45 -118v-782q0 -70 -45 -118t-114.5 -48t-114.5 48t-45 118z" />
<glyph unicode="&#xee;" horiz-adv-x="454" d="M-188 1337q0 63 23.5 95t84.5 61l180 82q102 45 127 45t127 -45l181 -82q61 -29 84.5 -60.5t23.5 -95.5q0 -51 -32.5 -87t-75.5 -36q-41 0 -111 31l-197 90l-196 -90q-70 -31 -111 -31q-43 0 -75.5 36t-32.5 87zM68 154v782q0 70 45 118t114.5 48t114.5 -48t45 -118v-782 q0 -70 -45 -118t-114.5 -48t-114.5 48t-45 118z" />
<glyph unicode="&#xef;" horiz-adv-x="454" d="M-170 1417.5q0 65.5 47 112.5t112.5 47t113 -47t47.5 -112.5t-47.5 -113t-113 -47.5t-112.5 47.5t-47 113zM68 154v782q0 70 45 118t114.5 48t114.5 -48t45 -118v-782q0 -70 -45 -118t-114.5 -48t-114.5 48t-45 118zM305 1417.5q0 65.5 47 112.5t112.5 47t113 -47 t47.5 -112.5t-47.5 -113t-113 -47.5t-112.5 47.5t-47 113z" />
<glyph unicode="&#xf0;" d="M31 512q0 240 140 392.5t361 152.5q154 0 213 -66l5 4q-33 66 -89.5 133.5t-115.5 96.5l-189 -92q-66 -33 -100 -33q-33 0 -53.5 26.5t-20.5 55.5q0 33 15.5 49t54.5 35l125 61q-86 47 -121 77t-35 75q0 49 47 83.5t125 34.5q160 0 312 -112l167 82q35 18 68 18 q31 0 53.5 -23.5t22.5 -60.5q0 -23 -11.5 -39t-22.5 -23t-34 -18l-104 -51q264 -229 264 -760q0 -133 -32 -246.5t-95 -203.5t-168.5 -141.5t-243.5 -51.5q-233 0 -385.5 153.5t-152.5 391.5zM350 512q0 -94 62.5 -166t157 -72t156.5 72t62 166t-62 166t-156.5 72t-157 -72 t-62.5 -166z" />
<glyph unicode="&#xf1;" d="M74 154v782q0 70 45 118t114 48q115 0 160 -103q78 123 275 123q176 0 286.5 -94t110.5 -283v-591q0 -70 -45 -118t-114.5 -48t-115 48t-45.5 118v505q0 84 -47 138.5t-129 54.5t-129 -54.5t-47 -138.5v-505q0 -70 -45 -118t-114.5 -48t-114.5 48t-45 118zM133 1346 q0 84 62.5 153.5t144.5 69.5q86 0 209 -48t158 -48q41 0 91 48t89 48q55 0 87 -38t32 -93q0 -84 -62.5 -154t-144.5 -70q-86 0 -209 48.5t-158 48.5q-41 0 -91 -48.5t-89 -48.5q-55 0 -87 38.5t-32 93.5z" />
<glyph unicode="&#xf2;" d="M31 545q0 246 150.5 411.5t388 165.5t388 -165.5t150.5 -411.5t-150.5 -412t-388 -166t-388 166t-150.5 412zM203 1479q0 59 36.5 100t96.5 41q43 0 84 -18l307 -134q76 -29 76 -112q0 -59 -37 -100.5t-96 -41.5q-43 0 -84 19l-307 133q-76 29 -76 113zM350 544.5 q0 -114.5 58.5 -192.5t161 -78t160.5 78t58 192.5t-58 192.5t-160.5 78t-161 -78t-58.5 -192.5z" />
<glyph unicode="&#xf3;" d="M31 545q0 246 150.5 411.5t388 165.5t388 -165.5t150.5 -411.5t-150.5 -412t-388 -166t-388 166t-150.5 412zM336 1356q0 84 76 112l307 134q41 18 84 18q59 0 96 -41t37 -100q0 -84 -76 -113l-307 -133q-41 -18 -84 -19q-59 0 -96 41t-37 101zM350 544.5 q0 -114.5 58.5 -192.5t161 -78t160.5 78t58 192.5t-58 192.5t-160.5 78t-161 -78t-58.5 -192.5z" />
<glyph unicode="&#xf4;" d="M31 545q0 246 150.5 411.5t388 165.5t388 -165.5t150.5 -411.5t-150.5 -412t-388 -166t-388 166t-150.5 412zM154 1337q0 63 23.5 95t84.5 61l180 82q102 45 127 45t127 -45l181 -82q61 -29 84.5 -60.5t23.5 -95.5q0 -51 -32.5 -87t-75.5 -36q-41 0 -111 31l-197 90 l-196 -90q-70 -31 -111 -31q-43 0 -75.5 36t-32.5 87zM350 544.5q0 -114.5 58.5 -192.5t161 -78t160.5 78t58 192.5t-58 192.5t-160.5 78t-161 -78t-58.5 -192.5z" />
<glyph unicode="&#xf5;" d="M31 545q0 246 150.5 411.5t388 165.5t388 -165.5t150.5 -411.5t-150.5 -412t-388 -166t-388 166t-150.5 412zM133 1346q0 84 62.5 153.5t144.5 69.5q86 0 209 -48t158 -48q41 0 91 48t89 48q55 0 87 -38t32 -93q0 -84 -62.5 -154t-144.5 -70q-86 0 -209 48.5t-158 48.5 q-41 0 -91 -48.5t-89 -48.5q-55 0 -87 38.5t-32 93.5zM350 544.5q0 -114.5 58.5 -192.5t161 -78t160.5 78t58 192.5t-58 192.5t-160.5 78t-161 -78t-58.5 -192.5z" />
<glyph unicode="&#xf6;" d="M31 545q0 246 150.5 411.5t388 165.5t388 -165.5t150.5 -411.5t-150.5 -412t-388 -166t-388 166t-150.5 412zM172 1417.5q0 65.5 47 112.5t112.5 47t113 -47t47.5 -112.5t-47.5 -113t-113 -47.5t-112.5 47.5t-47 113zM350 544.5q0 -114.5 58.5 -192.5t161 -78t160.5 78 t58 192.5t-58 192.5t-160.5 78t-161 -78t-58.5 -192.5zM647 1417.5q0 65.5 47 112.5t112.5 47t113 -47t47.5 -112.5t-47.5 -113t-113 -47.5t-112.5 47.5t-47 113z" />
<glyph unicode="&#xf7;" horiz-adv-x="1228" d="M35 579.5q0 63.5 38.5 99.5t104.5 36h873q66 0 104.5 -36t38.5 -99.5t-39 -99.5t-104 -36h-873q-66 0 -104.5 36t-38.5 99.5zM424 145.5q0 75.5 56.5 133t134 57.5t134 -57.5t56.5 -133t-56.5 -133t-134 -57.5t-134 57.5t-56.5 133zM424 1014q0 76 56.5 133t134 57 t134 -57t56.5 -133t-56.5 -133.5t-134 -57.5t-134 57.5t-56.5 133.5z" />
<glyph unicode="&#xf8;" d="M-14 12q-1 39 30 70l115 119q-100 147 -100 344q0 246 150.5 411.5t387.5 165.5q195 0 334 -114l74 75q41 43 59.5 56.5t42.5 13.5q31 0 52.5 -21.5t21.5 -54.5q0 -39 -31 -69l-112 -119q98 -150 98 -344q0 -246 -150.5 -412t-388.5 -166q-193 0 -333 115l-74 -76 q-41 -43 -59.5 -56t-43.5 -13q-31 0 -52 21.5t-21 53.5zM350 545q1 -58 15 -103l321 336q-49 37 -117 37q-102 0 -160.5 -78t-58.5 -192zM455 309q51 -35 114 -35q102 0 160.5 78t58.5 193q0 59 -14 100z" />
<glyph unicode="&#xf9;" d="M74 393v543q0 70 45 118t114.5 48t114.5 -48t45 -118v-498q0 -84 53.5 -130t123 -46t122.5 46t53 130v498q0 70 45.5 118t115 48t114.5 -48t45 -118v-543q0 -209 -140.5 -317.5t-355.5 -108.5t-355 108.5t-140 317.5zM203 1479q0 59 36.5 100t96.5 41q43 0 84 -18 l307 -134q76 -29 76 -112q0 -59 -37 -100.5t-96 -41.5q-43 0 -84 19l-307 133q-76 29 -76 113z" />
<glyph unicode="&#xfa;" d="M74 393v543q0 70 45 118t114.5 48t114.5 -48t45 -118v-498q0 -84 53.5 -130t123 -46t122.5 46t53 130v498q0 70 45.5 118t115 48t114.5 -48t45 -118v-543q0 -209 -140.5 -317.5t-355.5 -108.5t-355 108.5t-140 317.5zM336 1356q0 84 76 112l307 134q41 18 84 18 q59 0 96 -41t37 -100q0 -84 -76 -113l-307 -133q-41 -18 -84 -19q-59 0 -96 41t-37 101z" />
<glyph unicode="&#xfb;" d="M74 393v543q0 70 45 118t114.5 48t114.5 -48t45 -118v-498q0 -84 53.5 -130t123 -46t122.5 46t53 130v498q0 70 45.5 118t115 48t114.5 -48t45 -118v-543q0 -209 -140.5 -317.5t-355.5 -108.5t-355 108.5t-140 317.5zM154 1337q0 63 23.5 95t84.5 61l180 82 q102 45 127 45t127 -45l181 -82q61 -29 84.5 -60.5t23.5 -95.5q0 -51 -32.5 -87t-75.5 -36q-41 0 -111 31l-197 90l-196 -90q-70 -31 -111 -31q-43 0 -75.5 36t-32.5 87z" />
<glyph unicode="&#xfc;" d="M74 393v543q0 70 45 118t114.5 48t114.5 -48t45 -118v-498q0 -84 53.5 -130t123 -46t122.5 46t53 130v498q0 70 45.5 118t115 48t114.5 -48t45 -118v-543q0 -209 -140.5 -317.5t-355.5 -108.5t-355 108.5t-140 317.5zM172 1417.5q0 65.5 47 112.5t112.5 47t113 -47 t47.5 -112.5t-47.5 -113t-113 -47.5t-112.5 47.5t-47 113zM647 1417.5q0 65.5 47 112.5t112.5 47t113 -47t47.5 -112.5t-47.5 -113t-113 -47.5t-112.5 47.5t-47 113z" />
<glyph unicode="&#xfd;" horiz-adv-x="1024" d="M0 952q0 68 46 109t110 41q117 0 163 -121l189 -487l178 434q35 86 74 130t100 44q74 0 119 -44t45 -118q0 -51 -39 -139l-473 -1104q-18 -43 -27.5 -60.5t-30 -44t-49 -37t-67.5 -10.5q-78 0 -118 47.5t-40 96.5q0 55 53 176l107 239l-272 650q-68 158 -68 198z M279 1356q0 84 75 112l308 134q41 18 83 18q59 0 96.5 -41t37.5 -100q0 -84 -76 -113l-307 -133q-41 -18 -84 -19q-59 0 -96 41t-37 101z" />
<glyph unicode="&#xfe;" horiz-adv-x="1175" d="M68 -295v1712q0 76 42 118t117.5 42t117.5 -42t42 -118v-385q111 90 264 90q209 0 351.5 -168t142.5 -409.5t-142.5 -409.5t-351.5 -168q-154 0 -264 90v-352q0 -76 -42 -118t-117.5 -42t-117.5 42t-42 118zM387 544.5q0 -114.5 58.5 -192.5t161 -78t160.5 78t58 192.5 t-58 192.5t-160.5 78t-161 -78t-58.5 -192.5z" />
<glyph unicode="&#xff;" horiz-adv-x="1024" d="M0 952q0 68 46 109t110 41q117 0 163 -121l189 -487l178 434q35 86 74 130t100 44q74 0 119 -44t45 -118q0 -51 -39 -139l-473 -1104q-18 -43 -27.5 -60.5t-30 -44t-49 -37t-67.5 -10.5q-78 0 -118 47.5t-40 96.5q0 55 53 176l107 239l-272 650q-68 158 -68 198z M115 1417.5q0 65.5 47 112.5t112.5 47t112.5 -47t47 -112.5t-47 -113t-112.5 -47.5t-112.5 47.5t-47 113zM590 1417.5q0 65.5 47 112.5t112.5 47t112.5 -47t47 -112.5t-47 -113t-112.5 -47.5t-112.5 47.5t-47 113z" />
<glyph unicode="&#x152;" horiz-adv-x="1972" d="M43 729q0 346 194.5 554t522.5 208q106 0 185 -20.5t109.5 -39t86.5 -59.5q8 25 17 41.5t39 30.5t77 14h508q78 0 122 -42t44 -111q0 -72 -44 -113t-122 -41h-342v-264h313q78 0 122 -41t44 -112.5t-44 -112.5t-122 -41h-313v-273h350q78 0 122 -41t44 -112 q0 -70 -44 -112t-122 -42h-496q-133 0 -161 94q-152 -127 -373 -127q-328 0 -522.5 208t-194.5 554zM399 729q0 -201 89.5 -328t271.5 -127q90 0 158.5 38t109.5 103.5t60.5 144.5t19.5 169q0 86 -14.5 159t-50 143.5t-108.5 111.5t-175 41q-182 0 -271.5 -127t-89.5 -328z " />
<glyph unicode="&#x153;" horiz-adv-x="1896" d="M31 545q0 246 150.5 411.5t387.5 165.5q131 0 220.5 -33.5t185.5 -111.5q154 145 373 145q227 0 372.5 -161.5t145.5 -380.5q0 -80 -37 -110t-119 -30h-602q0 -63 70.5 -120.5t210.5 -57.5q90 0 195.5 50t131.5 50q55 0 94 -38.5t39 -98.5q0 -111 -154.5 -184.5 t-346.5 -73.5q-240 0 -394 148q-137 -147 -385 -148q-238 0 -388 166t-150 412zM350 544.5q0 -114.5 58.5 -192.5t161 -78t160.5 78t58 192.5t-58 192.5t-160.5 78t-161 -78t-58.5 -192.5zM1108 659h438q0 63 -62.5 128t-156.5 65t-156.5 -65t-62.5 -128z" />
<glyph unicode="&#x178;" horiz-adv-x="1101" d="M-39 1323q0 66 50 106.5t126 40.5q41 0 77 -20t51.5 -38.5t39.5 -53.5l246 -350l246 350q25 35 40 53.5t51 38.5t77 20q76 0 126 -40.5t50 -106.5q0 -47 -23.5 -88t-113.5 -166l-287 -385v-520q0 -86 -45 -131t-121 -45t-121 45t-45 131v520l-287 385q-113 158 -127 197 q-10 27 -10 57zM154 1757.5q0 65.5 47 112.5t112.5 47t112.5 -47t47 -112.5t-47 -113t-112.5 -47.5t-112.5 47.5t-47 113zM629 1757.5q0 65.5 47 112.5t112.5 47t112.5 -47t47 -112.5t-47 -113t-112.5 -47.5t-112.5 47.5t-47 113z" />
<glyph unicode="&#x2c6;" horiz-adv-x="454" d="M-188 1337q0 63 23.5 95t84.5 61l180 82q102 45 127 45t127 -45l181 -82q61 -29 84.5 -60.5t23.5 -95.5q0 -51 -32.5 -87t-75.5 -36q-41 0 -111 31l-197 90l-196 -90q-70 -31 -111 -31q-43 0 -75.5 36t-32.5 87z" />
<glyph unicode="&#x2dc;" horiz-adv-x="454" d="M-209 1346q0 84 62.5 153.5t144.5 69.5q86 0 209 -48t158 -48q41 0 91 48t89 48q55 0 87 -38t32 -93q0 -84 -62.5 -154t-144.5 -70q-86 0 -209 48.5t-158 48.5q-41 0 -91 -48.5t-89 -48.5q-55 0 -87 38.5t-32 93.5z" />
<glyph unicode="&#x2000;" horiz-adv-x="980" />
<glyph unicode="&#x2001;" horiz-adv-x="1960" />
<glyph unicode="&#x2002;" horiz-adv-x="980" />
<glyph unicode="&#x2003;" horiz-adv-x="1960" />
<glyph unicode="&#x2004;" horiz-adv-x="653" />
<glyph unicode="&#x2005;" horiz-adv-x="490" />
<glyph unicode="&#x2006;" horiz-adv-x="326" />
<glyph unicode="&#x2007;" horiz-adv-x="326" />
<glyph unicode="&#x2008;" horiz-adv-x="245" />
<glyph unicode="&#x2009;" horiz-adv-x="392" />
<glyph unicode="&#x200a;" horiz-adv-x="108" />
<glyph unicode="&#x2010;" horiz-adv-x="872" d="M59 571.5q0 61.5 36.5 98.5t99.5 37h483q63 0 99 -37t36 -98.5t-36 -98.5t-99 -37h-483q-63 0 -99.5 37t-36.5 98.5z" />
<glyph unicode="&#x2011;" horiz-adv-x="872" d="M59 571.5q0 61.5 36.5 98.5t99.5 37h483q63 0 99 -37t36 -98.5t-36 -98.5t-99 -37h-483q-63 0 -99.5 37t-36.5 98.5z" />
<glyph unicode="&#x2012;" horiz-adv-x="872" d="M59 571.5q0 61.5 36.5 98.5t99.5 37h483q63 0 99 -37t36 -98.5t-36 -98.5t-99 -37h-483q-63 0 -99.5 37t-36.5 98.5z" />
<glyph unicode="&#x2013;" horiz-adv-x="1024" d="M0 571.5q0 61.5 36 98.5t99 37h754q63 0 99 -37t36 -98.5t-36 -98.5t-99 -37h-754q-63 0 -99 37t-36 98.5z" />
<glyph unicode="&#x2014;" horiz-adv-x="2048" d="M-135 571.5q0 61.5 36 98.5t99 37h2048q63 0 99 -37t36 -98.5t-36 -98.5t-99 -37h-2048q-63 0 -99 37t-36 98.5z" />
<glyph unicode="&#x2018;" horiz-adv-x="530" d="M2 977q0 43 31 98l168 301q53 94 145 94q68 0 112 -38.5t44 -100.5q0 -41 -31 -98l-168 -301q-53 -94 -145 -94q-68 0 -112 38.5t-44 100.5z" />
<glyph unicode="&#x2019;" horiz-adv-x="530" d="M2 977q0 43 31 98l168 301q53 94 145 94q68 0 112 -38.5t44 -100.5q0 -41 -31 -98l-168 -301q-53 -94 -145 -94q-68 0 -112 38.5t-44 100.5z" />
<glyph unicode="&#x201a;" horiz-adv-x="530" d="M2 -170q0 41 31 98l168 301q53 94 145 95q68 0 112 -39t44 -101q0 -41 -31 -98l-168 -301q-53 -94 -145 -94q-68 0 -112 39t-44 100z" />
<glyph unicode="&#x201c;" horiz-adv-x="985" d="M2 977q0 43 31 98l168 301q53 94 145 94q68 0 112 -38.5t44 -100.5q0 -41 -31 -98l-168 -301q-53 -94 -145 -94q-68 0 -112 38.5t-44 100.5zM457 977q-1 43 30 98l168 301q53 94 146 94q68 0 111.5 -38.5t43.5 -100.5q0 -41 -30 -98l-168 -301q-53 -94 -146 -94 q-68 0 -111.5 38.5t-43.5 100.5z" />
<glyph unicode="&#x201d;" horiz-adv-x="985" d="M2 977q0 43 31 98l168 301q53 94 145 94q68 0 112 -38.5t44 -100.5q0 -41 -31 -98l-168 -301q-53 -94 -145 -94q-68 0 -112 38.5t-44 100.5zM457 977q0 43 30 98l168 301q53 94 146 94q68 0 111.5 -38.5t43.5 -100.5q1 -41 -30 -98l-168 -301q-53 -94 -146 -94 q-68 0 -111.5 38.5t-43.5 100.5z" />
<glyph unicode="&#x201e;" horiz-adv-x="985" d="M2 -170q0 41 31 98l168 301q53 94 145 95q68 0 112 -39t44 -101q0 -41 -31 -98l-168 -301q-53 -94 -145 -94q-68 0 -112 39t-44 100zM457 -170q-1 41 30 98l168 301q53 94 146 95q68 0 111.5 -39t43.5 -101q0 -41 -30 -98l-168 -301q-53 -94 -146 -94q-68 0 -111.5 39 t-43.5 100z" />
<glyph unicode="&#x2022;" horiz-adv-x="1024" d="M147 729.5q0 151.5 106.5 258t258.5 106.5t258.5 -106.5t106.5 -258t-106.5 -258t-258.5 -106.5t-258.5 106.5t-106.5 258z" />
<glyph unicode="&#x2026;" horiz-adv-x="2048" d="M164 145q0 72 53 125.5t125 53.5t125 -53.5t53 -125.5q0 -74 -53 -126t-125 -52t-125 52t-53 126zM846 145q0 72 53 125.5t125 53.5t125 -53.5t53 -125.5q0 -74 -53 -126t-125 -52t-125 52t-53 126zM1528 145q0 72 53 125.5t125 53.5t125 -53.5t53 -125.5q0 -74 -53 -126 t-125 -52t-125 52t-53 126z" />
<glyph unicode="&#x202f;" horiz-adv-x="392" />
<glyph unicode="&#x2039;" horiz-adv-x="757" d="M147 571q0 106 82 168l172 125q59 43 105 43q47 0 75.5 -31.5t28.5 -76.5q0 -72 -55 -109l-182 -119l182 -120q55 -35 55 -107q0 -45 -28.5 -76.5t-75.5 -31.5q-46 0 -105 43l-172 124q-82 57 -82 168z" />
<glyph unicode="&#x203a;" horiz-adv-x="757" d="M147 344q0 72 56 109l182 118l-182 121q-55 35 -56 107q0 45 29 76.5t76 31.5q45 0 104 -43l172 -125q82 -57 82 -168q0 -106 -82 -168l-172 -124q-59 -43 -104 -43q-47 0 -76 31.5t-29 76.5z" />
<glyph unicode="&#x205f;" horiz-adv-x="490" />
<glyph unicode="&#x20ac;" horiz-adv-x="1265" d="M20 584q0 35 28 65.5t71 30.5h6v16q0 8 -1 20.5t-1 20.5q0 4 1 20.5t1 37.5h-6q-37 0 -68 30.5t-31 69.5q0 35 28 65.5t71 30.5h39q35 135 114.5 241.5t180.5 168.5q145 90 344 90q164 0 278 -51q137 -63 137 -180q0 -63 -39.5 -110.5t-107.5 -47.5q-31 0 -96 28 q-96 41 -174 41q-111 0 -193 -69q-53 -43 -82 -111h377q43 0 70.5 -30.5t27.5 -65.5q0 -39 -30.5 -69.5t-67.5 -30.5h-426q0 -2 -2 -22.5t-2 -33.5q0 -8 1 -23.5t1 -23.5v-12h338q43 0 70.5 -31t27.5 -65q0 -39 -30.5 -70t-67.5 -31h-293q6 -20 27 -57q16 -27 37 -47 q80 -80 213 -80q104 0 202 45q51 23 84 23q61 0 101 -33q14 -12 24 -31q23 -41 23 -82q0 -123 -146 -194q-47 -23 -121 -41q-82 -18 -172 -19q-276 0 -452 180q-131 133 -180 336h-35q-37 0 -68 31t-31 70z" />
<glyph unicode="&#x2122;" horiz-adv-x="2048" d="M84 1366q0 37 24.5 64.5t75.5 27.5h506q51 0 74.5 -27.5t23.5 -64.5t-23.5 -64.5t-74.5 -27.5h-131v-545q0 -72 -41 -102.5t-82 -30.5t-82 30.5t-41 102.5v545h-129q-51 0 -75.5 27.5t-24.5 64.5zM920 729v557q0 98 52 141t118 43q160 0 219 -157l133 -342l133 342 q59 158 219 157q66 0 118 -43t52 -141v-557q0 -72 -41 -102.5t-82 -30.5t-82 30.5t-41 102.5v381h-4l-149 -405q-37 -109 -123 -109t-123 109l-150 405h-4v-381q0 -72 -41 -102.5t-82 -30.5t-81.5 30.5t-40.5 102.5z" />
<glyph unicode="&#xe000;" horiz-adv-x="1105" d="M0 0v1106h1106v-1106h-1106z" />
<glyph unicode="&#xfb01;" d="M-49 942.5q0 147.5 168 147.5h37v143q0 147 93 245.5t238 98.5q213 0 213 -147.5t-151 -147.5q-39 0 -56.5 -22.5t-17.5 -81.5v-88h88q168 0 168 -147.5t-168 -147.5h-88v-641q0 -70 -45 -118t-114.5 -48t-114.5 48t-45 118v641h-37q-168 0 -168 147.5zM721 1386.5 q0 79.5 56.5 135t134 55.5t134 -55.5t56.5 -135t-56.5 -135t-134 -55.5t-134 55.5t-56.5 135zM752 154v782q0 70 45 118t114.5 48t114.5 -48t45 -118v-782q0 -70 -45 -118t-114.5 -48t-114.5 48t-45 118z" />
<glyph unicode="&#xfb02;" d="M-49 942.5q0 147.5 168 147.5h37v143q0 147 93 245.5t238 98.5q213 0 213 -147.5t-151 -147.5q-39 0 -56.5 -22.5t-17.5 -81.5v-88h88q168 0 168 -147.5t-168 -147.5h-88v-641q0 -70 -45 -118t-114.5 -48t-114.5 48t-45 118v641h-37q-168 0 -168 147.5zM752 154v1257 q0 70 45 118t114.5 48t114.5 -48t45 -118v-1257q0 -70 -45 -118t-114.5 -48t-114.5 48t-45 118z" />
</font>
</defs>
</svg>
